<svg aria-hidden="true" style="width:0;height:0;position:absolute;overflow:hidden" xmlns="http://www.w3.org/2000/svg"><defs><symbol id="icon-close" viewBox="0 0 32 32"><path fill="none" stroke="#fff" style="stroke:var(--color1,#fff)" stroke-linecap="round" stroke-width="3.765" d="M1.882 29.168 29.168 1.882M29.169 29.168 1.883 1.882"/></symbol><symbol id="icon-menu" viewBox="0 0 53 32"><path stroke-linecap="round" stroke-width="4.571" d="M2.286 2.286h48M2.286 16h48M2.286 29.714h48"/></symbol><symbol id="icon-feedback-arrow1" viewBox="0 0 54 32"><path fill="#ff6b09" style="fill:var(--color2,#ff6b09)" d="M52 14a2 2 0 1 1 0 4v-4zM.586 17.414a2 2 0 0 1 0-2.828L13.314 1.858a2 2 0 1 1 2.828 2.828L4.828 16l11.314 11.314a2 2 0 1 1-2.828 2.828L.586 17.414zM52 18H2v-4h50v4z"/></symbol><symbol id="icon-feedback-arrow2" viewBox="0 0 54 32"><path fill="#ff6b09" style="fill:var(--color2,#ff6b09)" d="M2 14a2 2 0 1 0 0 4v-4zm51.414 3.414a2 2 0 0 0 0-2.828L40.686 1.858a2 2 0 1 0-2.828 2.828L49.172 16 37.858 27.314a2 2 0 1 0 2.828 2.828l12.728-12.728zM2 18h50v-4H2v4z"/></symbol><symbol id="icon-feedback-facebook" viewBox="0 0 31 32"><path fill="#436eab" style="fill:var(--color3,#436eab)" d="M27.65.549H3.318c-.88 0-1.724.347-2.346.963S0 2.965 0 3.838v24.12c0 .872.35 1.709.972 2.326s1.466.963 2.346.963h9.487V20.81H8.45v-4.912h4.355v-3.744c0-4.259 2.558-6.611 6.475-6.611 1.876 0 3.838.332 3.838.332v4.18h-2.161c-2.13 0-2.794 1.31-2.794 2.654v3.19h4.754l-.76 4.912h-3.994v10.437h9.487c.88 0 1.724-.347 2.346-.963s.972-1.453.972-2.326V3.839c0-.872-.35-1.709-.972-2.326S28.53.55 27.65.55z"/></symbol><symbol id="icon-hero-female-student-frame" viewBox="0 0 32 32"><path fill="#ff6b09" style="fill:var(--color2,#ff6b09)" d="M9.753 23.074h12.605c.062-1.437-.041-3.822-.924-4.957l-.032-.041-1.931-.97c.042-.141.063-.271.071-.366a.664.664 0 0 0-.047-.319c-.319-.762-.993-1.163-1.364-1.335a2.36 2.36 0 0 0 .221-.722.618.618 0 0 0 .434-.447l.225-.916a.62.62 0 0 0-.209-.629c.636-1.444-.429-2.805-.487-2.877-1.153-1.246-2.609-1.013-2.686-1-2.102.44-2.913 2.051-2.455 3.94a.617.617 0 0 0-.142.565l.227.917a.62.62 0 0 0 .431.446c.064.457.258.871.542 1.204v.726c-3.016 1.544-1.105.559-3.522 1.782-.005.023-1.134 1.223-.966 4.781l.01.217zm12.166-.456h-2.074v-.871l1.372-3.141c.687 1.141.713 3.319.702 4.012zm-2.831-5.917c-.08.92-.584.642-.896 1.35a1.042 1.042 0 0 1-.253-.938c.119-.635-.268-.823-.173-1.49l.015-.015v-.002c.008-.009.085-.1.107-.129.821.358 1.216 1.023 1.2 1.224zm-4.403-.723a2.339 2.339 0 0 0 2.624.035c.053.524.257.629.185 1.015a1.568 1.568 0 0 0-.025.212l-1.413 1.592-1.806-2.036.436-.228v-.59zm-.568-1.948v-2.434c.22-.407.52-.702.892-.878.998.565 2.146 1.407 2.916 2.255-.001 1.08.003 1.083-.004 1.171v.006a1.906 1.906 0 0 1-1.9 1.793 1.91 1.91 0 0 1-1.904-1.913zm-.281 2.987 2.219 2.502 1.49-1.679c.034.098.082.191.136.28l-1.626 2.034-2.425-3.033.206-.103zm4.544-3.354v-.705l.169-.194c.009.357.048-.064-.169.899zm-2.668-4.718c.09.006 1.301-.184 2.258.849.038.047.817 1.051.504 2.149-.107-.489-.294-1.115-.589-1.414l-.323.321c.291.295.483 1.194.556 1.66-1.337-1.399-3.061-2.284-3.085-2.299-.086.054-.816.193-1.346 1.223l-.025.049v.756l-.067.001c-.337-1.626.308-2.917 2.116-3.296zm-2.164 3.765.115.465v.488l-.191-.771c-.028-.115.057-.159.076-.181zm-.334 4.619 2.841 3.553 1.922-2.404c.209.187.31.214.753.442l-.15-.507c-.038-.129.112-.335.203-.43.203-.11.371-.267.498-.46l1.568.788-1.459 3.341v.967h-6.671v-.967l-1.46-3.341 1.954-.981zm-2.321 1.277 1.372 3.14v.871h-2.074c-.01-.693.015-2.87.702-4.011z"/><path fill="none" stroke="#ff6b09" style="stroke:var(--color2,#ff6b09)" stroke-width=".627" d="M31.686 4.62V.314H.313v31.373h31.373v-4.306"/></symbol><symbol id="icon-hero-helloen" viewBox="0 0 91 32"><path d="M13.608 4.836v12.942H9.947v-5.047H4.955v5.047H1.294V4.836h3.661v4.863h4.992V4.836h3.661zm13.398 7.95c0 .025-.018.314-.055.869h-7.285c.148.518.431.918.851 1.202.431.271.968.407 1.609.407.481 0 .894-.068 1.239-.203a3.63 3.63 0 0 0 1.072-.666l1.849 1.923c-.974 1.085-2.397 1.627-4.271 1.627-1.171 0-2.2-.222-3.088-.666s-1.578-1.06-2.071-1.849c-.481-.789-.721-1.683-.721-2.681 0-.986.234-1.867.703-2.644.481-.789 1.14-1.405 1.978-1.849s1.781-.666 2.829-.666c.998 0 1.904.21 2.718.629a4.58 4.58 0 0 1 1.923 1.793c.481.777.721 1.701.721 2.773zm-5.343-2.7c-.542 0-.998.154-1.368.462-.357.308-.586.727-.684 1.257h4.105c-.099-.53-.333-.949-.703-1.257-.357-.308-.807-.462-1.35-.462zm7.702-6.027h3.513v13.719h-3.513V4.059zm6.536 0h3.513v13.719h-3.513V4.059z"/><path fill="#ff6b09" style="fill:var(--color2,#ff6b09)" d="M5.547 26.596v3.982h-.922v-1.633H2.816v1.633h-.922v-3.982h.922v1.57h1.809v-1.57h.922zm5.049 3.242v.74H7.513v-3.982h3.009v.74H8.428v.865h1.849v.717H8.428v.922h2.167zm1.758-3.242h.922v3.231h1.997v.751h-2.918v-3.982zm4.457 0h.922v3.231h1.997v.751h-2.918v-3.982zm4.457 0h.922v3.982h-.922v-3.982zm4.199 4.05c-.315 0-.62-.042-.916-.125a2.163 2.163 0 0 1-.705-.336l.313-.694c.171.125.374.226.609.302s.47.114.705.114c.262 0 .455-.038.58-.114.125-.08.188-.184.188-.313a.284.284 0 0 0-.114-.233.79.79 0 0 0-.284-.154 5.18 5.18 0 0 0-.466-.125c-.303-.072-.552-.144-.745-.216s-.36-.188-.501-.347c-.137-.159-.205-.372-.205-.637 0-.231.063-.44.188-.626.125-.19.313-.339.563-.449.254-.11.563-.165.927-.165.254 0 .502.03.745.091s.455.148.637.262l-.284.7a2.218 2.218 0 0 0-1.104-.313c-.258 0-.449.042-.575.125-.121.083-.182.193-.182.33s.07.239.21.307c.144.064.362.129.654.193.303.072.552.144.745.216s.358.186.495.341c.14.156.21.366.21.631 0 .228-.064.436-.193.626-.125.186-.315.334-.569.444s-.563.165-.927.165zm6.996-4.05v3.982h-.922v-1.633h-1.809v1.633h-.922v-3.982h.922v1.57h1.809v-1.57h.922z"/><path d="M40.148 29.838v.74h-3.083v-3.982h3.009v.74h-2.093v.865h1.849v.717h-1.849v.922h2.167zm5.409-3.242v3.982H44.8l-1.985-2.418v2.418h-.91v-3.982h.762l1.98 2.418v-2.418h.91zm4.657 1.928h.842v1.616c-.216.163-.467.288-.751.375s-.571.131-.859.131c-.413 0-.785-.087-1.115-.262a2.01 2.01 0 0 1-.779-.734c-.186-.315-.279-.669-.279-1.064s.093-.747.279-1.058c.19-.315.451-.559.785-.734a2.355 2.355 0 0 1 1.126-.267c.349 0 .666.059.95.176s.523.288.717.512l-.592.546a1.367 1.367 0 0 0-1.03-.449c-.254 0-.48.053-.677.159s-.351.256-.461.449c-.11.193-.165.415-.165.666 0 .247.055.466.165.66s.262.345.455.455c.197.106.421.159.671.159.266 0 .504-.057.717-.171v-1.166zm2.722-1.928h.922v3.231h1.997v.751h-2.918v-3.982zm4.458 0h.922v3.982h-.922v-3.982zm4.199 4.05c-.315 0-.62-.042-.916-.125a2.163 2.163 0 0 1-.705-.336l.313-.694c.171.125.374.226.609.302s.47.114.705.114c.262 0 .455-.038.58-.114.125-.08.188-.184.188-.313a.284.284 0 0 0-.114-.233.79.79 0 0 0-.284-.154 5.125 5.125 0 0 0-.467-.125c-.303-.072-.552-.144-.745-.216s-.36-.188-.501-.347c-.137-.159-.205-.372-.205-.637 0-.231.063-.44.188-.626.125-.19.313-.339.563-.449.254-.11.563-.165.927-.165.254 0 .503.03.745.091s.455.148.637.262l-.284.7a2.218 2.218 0 0 0-1.104-.313c-.258 0-.449.042-.575.125-.121.083-.182.193-.182.33s.07.239.211.307c.144.064.362.129.654.193.303.072.552.144.745.216s.358.186.495.341c.14.156.211.366.211.631 0 .228-.064.436-.193.626-.125.186-.315.334-.569.444s-.563.165-.927.165zm6.995-4.05v3.982h-.922v-1.633h-1.809v1.633h-.922v-3.982h.922v1.57h1.809v-1.57h.922zM74.263 14.949v2.829H63.872V4.836h10.15v2.829h-6.527v2.182h5.75v2.736h-5.75v2.367h6.767zM89.348 4.836v12.942h-3.014l-5.713-6.896v6.896h-3.587V4.836h3.014l5.713 6.896V4.836h3.587z"/><path fill="#ff6b09" style="fill:var(--color2,#ff6b09)" d="M58.695 11.062c-.189-.423-.45-.84-.831-1.322-.962-1.209-1.255-3.905-1.258-3.931a.326.326 0 0 0-.225-.275.33.33 0 0 0-.345.094c-1.147 1.283-.665 3.265-.404 4.057.072.217.15.472.205.731.424 2.091-.394 3.038-.587 3.229-.186.052-.313.026-.43-.1-.404-.443-.538-1.894-.349-3.785a3.89 3.89 0 0 0-.026-1.054c-.399-2.324-1.86-3.815-2.233-4.338C51.189 2.855 51.084.337 51.081.315a.324.324 0 0 0-.508-.255c-1.708 1.16-1.561 3.956-1.323 5.518.055.362.163.731.349 1.196.662 1.665-.13 3.814-.137 3.834s-.013.036-.016.055c-.101.53-.271.847-.46.847a.205.205 0 0 1-.062-.01c-.231-.049-.352-.294-.355-.507-.013-2.757-2.78-3.685-2.809-3.695a.323.323 0 0 0-.345.097.32.32 0 0 0-.046.356c.033.068.137.365.065 1.416a12.072 12.072 0 0 1-.512 2.773 13.547 13.547 0 0 0-.548 4.276c.506 5.505 8.423 6.469 13.122 3.368a4.742 4.742 0 0 0 1.245-1.154c1.734-2.392.714-5.64-.046-7.366zm-12.043 5.259a.322.322 0 0 1-.306.339h-.02a.325.325 0 0 1-.326-.304c-.029-.472-.023-.966.013-1.503a.326.326 0 0 1 .652.045c-.036.511-.042.976-.013 1.422zm.16-2.864a.323.323 0 0 1-.323.284c-.013 0-.026 0-.042-.003a.327.327 0 0 1-.284-.359l.156-1.248a.328.328 0 0 1 .365-.281.326.326 0 0 1 .284.362l-.156 1.245zM56.49 4.422a.322.322 0 0 1-.272-.368c.02-.131.138-.804.458-1.142.123-.13.329-.137.461-.015s.138.327.015.457c-.135.143-.25.553-.289.798a.326.326 0 0 1-.372.27zM44.608 6.032c-.062-.24-.217-.637-.366-.766-.135-.118-.149-.322-.03-.456s.324-.148.46-.03c.351.305.535.963.568 1.092a.322.322 0 0 1-.235.393.327.327 0 0 1-.397-.232z"/></symbol><symbol id="icon-hero-helloen-fire" viewBox="0 0 23 32"><path fill="#ff6b09" style="fill:var(--color2,#ff6b09)" d="M21.909 16.593c-.284-.635-.675-1.261-1.247-1.983-1.442-1.813-1.882-5.857-1.887-5.896a.488.488 0 0 0-.337-.412.495.495 0 0 0-.518.141c-1.721 1.925-.997 4.897-.606 6.085.108.325.225.708.308 1.096.636 3.137-.592 4.558-.88 4.844-.279.078-.469.039-.645-.15-.606-.664-.807-2.841-.523-5.678a5.797 5.797 0 0 0-.039-1.581c-.598-3.486-2.791-5.722-3.349-6.507C10.651 4.283 10.494.506 10.49.472a.487.487 0 0 0-.763-.383C7.165 1.83 7.385 6.024 7.742 8.365c.083.543.244 1.096.523 1.794.992 2.497-.196 5.721-.205 5.75s-.02.053-.024.082c-.152.795-.406 1.27-.689 1.27a.327.327 0 0 1-.093-.015c-.347-.073-.528-.441-.533-.761-.02-4.136-4.17-5.527-4.214-5.542a.485.485 0 0 0-.518.146.476.476 0 0 0-.068.533c.049.102.205.548.098 2.124a18.09 18.09 0 0 1-.768 4.16C.263 21.125.42 24.175.43 24.321c.759 8.257 12.635 9.704 19.683 5.052.772-.509 1.403-1.091 1.868-1.731 2.601-3.588 1.071-8.461-.068-11.05zM3.845 24.481a.484.484 0 0 1-.46.509h-.029a.487.487 0 0 1-.489-.456c-.044-.708-.034-1.45.02-2.255a.49.49 0 0 1 .978.068 15.622 15.622 0 0 0-.02 2.133zm.239-4.296a.485.485 0 0 1-.484.427c-.02 0-.039 0-.064-.005a.488.488 0 0 1-.425-.538l.235-1.872a.494.494 0 0 1 .548-.422c.269.034.46.276.425.543l-.235 1.867zM18.602 6.633a.484.484 0 0 1-.408-.553c.03-.197.207-1.205.686-1.713.185-.196.493-.206.691-.022s.207.49.022.685c-.203.215-.376.829-.433 1.197a.489.489 0 0 1-.558.405zM.778 9.048C.684 8.687.452 8.093.229 7.899c-.203-.177-.223-.483-.045-.684s.486-.222.69-.045c.527.458.802 1.445.852 1.638a.49.49 0 0 1-.947.241z"/></symbol><symbol id="icon-hero-insurance-frame" viewBox="0 0 32 32"><path fill="#ff6b09" style="fill:var(--color2,#ff6b09)" d="M9.667 14.937c0 .168-.255.168-.255 0a6.468 6.468 0 0 1 12.934 0c0 .168-.253.168-.253 0 0-2.414-3.966-2.415-3.966 0 0 .168-.261.168-.261 0 0-2.408-3.972-2.408-3.972 0 0 .168-.261.168-.261 0 0-2.403-3.965-2.42-3.965 0zM13.654 14c.069-1.389.287-2.635.605-3.586.253-.756.574-1.33.937-1.652a6.216 6.216 0 0 0-5.427 5.046c.939-1.354 3.107-1.246 3.885.192zm4.191-.062c-.07-1.336-.282-2.531-.588-3.443-.788-2.359-1.969-2.359-2.757 0-.305.911-.516 2.107-.588 3.443.847-1.44 3.085-1.44 3.933 0zm4.143-.13a6.214 6.214 0 0 0-5.427-5.046c.365.322.684.896.937 1.652.318.951.536 2.197.605 3.586.783-1.446 2.957-1.531 3.885-.192zM15.03 17.896v-1.313c-.237.157-.423.4-.423.696 0 .289.189.479.423.617zm.255.408c-.453-.208-.931-.45-.931-1.025 0-.592.45-.889.931-1.11v2.135zM16.727 19.878v1.328c.24-.159.427-.403.427-.699 0-.292-.192-.489-.427-.629zm-.253-.409c.455.211.936.461.936 1.038 0 .594-.453.89-.936 1.11v-2.148z"/><path fill="#ff6b09" style="fill:var(--color2,#ff6b09)" d="M16.727 15.089c1.044.241 2.117 1.023 2.117 2.191 0 1-1.69.963-1.69 0 0-.298-.188-.542-.427-.699v1.869c.966.316 2.12.882 2.12 2.058 0 1.169-1.073 1.95-2.12 2.189-.005 1.113-1.695 1.111-1.698-.002-.595-.137-1.113-.415-1.487-.783-.392-.388-.624-.875-.624-1.405 0-.985 1.688-.985 1.688 0 0 .295.186.537.423.695v-1.867c-.959-.31-2.119-.893-2.119-2.058 0-1.169 1.073-1.95 2.119-2.189.005-1.113 1.695-1.111 1.698.002zm-1.442.003v.203c-.994.197-2.12.834-2.12 1.982 0 1.104 1.237 1.598 2.12 1.872v2.467c-.478-.218-.931-.513-.931-1.108 0-.65-1.182-.65-1.182 0 0 .459.205.884.55 1.223.438.434.969.64 1.563.757v.205c0 .783 1.189.783 1.189 0v-.203c.997-.198 2.119-.835 2.119-1.982 0-1.114-1.233-1.594-2.119-1.873v-2.466c.479.218.936.513.936 1.111 0 .634 1.18.66 1.18 0 0-1.147-1.121-1.785-2.116-1.983v-.205c0-.783-1.189-.783-1.189 0z"/><path fill="none" stroke="#ff6b09" style="stroke:var(--color2,#ff6b09)" stroke-width=".627" d="M31.686 4.62V.314H.313v31.373h31.373v-4.306"/></symbol><symbol id="icon-hero-mod-teach-frame" viewBox="0 0 32 32"><path fill="#ff6b09" style="fill:var(--color2,#ff6b09)" d="M22.375 8.412h-7.256a.858.858 0 0 0-.857.857v3.003l-5.39 2.262c-.061.026-.103.083-.107.149s.028.129.085.163l.687.411v4.384a.791.791 0 0 0-.615.771v.423c0 .097.079.176.176.176h1.231a.176.176 0 0 0 .176-.176v-.423a.793.793 0 0 0-.616-.771v-4.175l.544.325c-.017.125-.002-.218-.008 2.041 0 .743 1.903 1.141 3.838 1.163v3.421a.856.856 0 0 0 .856.856h7.256a.857.857 0 0 0 .856-.856V9.265a.862.862 0 0 0-.855-.857zM10.153 20.413v.247h-.88v-.247a.44.44 0 1 1 .88 0zm12.222 2.51h-7.256a.506.506 0 0 1-.505-.504v-1.186h8.264v1.186a.507.507 0 0 1-.503.503zm.503-2.041h-8.264v-1.883c.945-.011 3.841-.219 3.841-1.165-.001-1.419.003-1.995-.004-2.044l1.576-.944c.057-.034.089-.097.085-.163s-.046-.124-.107-.149l-5.39-2.262v-1.466h8.264v10.076zm-8.44-4.213c-.974 0-2.848.126-3.663.658.005-1.627-.056-1.521.144-1.659.506-.373 1.953-.633 3.519-.633.683 0 3.665.188 3.665.819v1.472c-.822-.537-2.687-.658-3.665-.658zm.176-7.401c0-.278.226-.505.505-.505h7.256c.279 0 .504.23.504.505v1.186h-8.264V9.268zm-.176 3.311 5.11 2.145-1.266.758c-.673-.668-2.9-.797-3.844-.797-.945 0-3.172.13-3.844.797l-1.267-.758 5.11-2.145zm-3.662 5.255c0-.284 1.258-.814 3.663-.814 2.406 0 3.665.53 3.665.814s-1.259.815-3.665.815c-2.405 0-3.663-.53-3.663-.815z"/><path fill="#ff6b09" style="fill:var(--color2,#ff6b09)" d="M18.747 21.498a.581.581 0 1 0 .001 1.163.581.581 0 0 0-.001-1.163zm0 .81a.23.23 0 1 1 0-.46.23.23 0 0 1 0 .46zM19.416 9.433h-1.339v.351h1.339v-.351z"/><path fill="none" stroke="#ff6b09" style="stroke:var(--color2,#ff6b09)" stroke-width=".627" d="M31.686 4.62V.314H.313v31.373h31.373v-4.306"/></symbol><symbol id="icon-hero-wave-bg" viewBox="0 0 58 32"><path fill="#fff" style="fill:var(--color1,#fff)" d="M8.089 27.641C4.664 28.004 2.22 30.063 0 30.374V0h58.119v16.692c-1.638-.387-8.054 6.083-11.703 7.386-5.369.882-2.082-3.425-14.646 2.681s-19.642.454-23.681.882z"/></symbol><symbol id="icon-how-do-ability" viewBox="0 0 37 32"><path fill="#ff6b09" style="fill:var(--color2,#ff6b09)" d="M2.318 29.826h12.404A3.786 3.786 0 0 0 18.15 32h.783c1.486 0 2.8-.853 3.429-2.174h12.41c1.278 0 2.318-1.054 2.318-2.349V4.965c0-1.295-1.04-2.349-2.318-2.349H33.52V1.567c0-.864-.693-1.566-1.545-1.566H5.108c-.852 0-1.545.702-1.545 1.566v1.049H2.319C1.041 2.616.001 3.67.001 4.965v22.512c0 1.295 1.04 2.349 2.318 2.349zm29.656-4.832H19.318V6.798c2.925.388 5.193 2.924 5.193 5.992v.706l-.183-.041a.772.772 0 0 0-.921.597l-1.23 5.672a.783.783 0 0 0 .589.932l2.658.594a1.979 1.979 0 0 0 2.352-1.533l.712-3.28a2.007 2.007 0 0 0-1.505-2.388l-.925-.207v-1.051c0-3.934-2.959-7.179-6.739-7.575v-3.65h12.657l-.001 23.428zm-7.223-9.84 1.898.424a.434.434 0 0 1 .33.522l-.712 3.28a.457.457 0 0 1-.515.34l-1.9-.424.899-4.142zM5.108 1.566h12.665v3.649c-3.784.391-6.746 3.64-6.746 7.576v1.051l-.927.207a1.968 1.968 0 0 0-1.24.877 2.007 2.007 0 0 0-.263 1.509l.71 3.277a1.993 1.993 0 0 0 1.936 1.583c.14 0 .279-.015.422-.046l2.647-.593a.783.783 0 0 0 .588-.932l-1.23-5.672a.773.773 0 0 0-.922-.597l-.177.04v-.705c0-3.071 2.272-5.609 5.201-5.993v18.197H5.107V1.566zm7.219 13.588.899 4.141-1.89.423a.439.439 0 0 1-.519-.337l-.712-3.284a.433.433 0 0 1 .328-.52l1.893-.423zM1.545 4.964c0-.432.346-.783.773-.783h1.244v20.813c0 .864.694 1.566 1.545 1.566h26.867c.852 0 1.545-.702 1.545-1.566V4.181h1.252c.426 0 .773.351.773.783v22.512a.778.778 0 0 1-.773.783H21.835a.774.774 0 0 0-.739.553 2.257 2.257 0 0 1-2.165 1.621h-.783c-.998 0-1.867-.649-2.168-1.63a.775.775 0 0 0-.736-.544H2.316a.779.779 0 0 1-.773-.783V4.964z"/></symbol><symbol id="icon-how-do-adobted" viewBox="0 0 30 32"><path fill="#ff6b09" style="fill:var(--color2,#ff6b09)" d="m29.977 4.975-.001-.002a.32.32 0 0 0-.06-.09L25.068.084a.329.329 0 0 0-.041-.033l-.009-.006c-.012-.007-.024-.014-.036-.019l-.011-.005a.287.287 0 0 0-.1-.02H3.509a.285.285 0 0 0-.286.284v29.271c0 .019.002.037.006.056l.007.023.009.03.014.026.013.023c.01.014.021.028.033.04l.003.003 2.183 2.161a.288.288 0 0 0 .405 0l1.982-1.961 1.981 1.961c.056.056.129.083.203.083s.146-.027.202-.083l1.981-1.96 1.982 1.96a.288.288 0 0 0 .405 0l1.981-1.96 1.981 1.96a.288.288 0 0 0 .405 0l1.982-1.961 1.981 1.961c.056.056.129.083.202.083s.147-.027.203-.083l1.981-1.96 1.982 1.96a.288.288 0 0 0 .405 0l2.183-2.161.011-.014.024-.029c.007-.009.011-.02.017-.03.003-.007.007-.012.009-.019.006-.013.009-.026.012-.039l.005-.013a.278.278 0 0 0 .006-.058V5.085a.287.287 0 0 0-.023-.108zM25.151.969l3.869 3.83h-3.869V.969zm4.275 28.468-1.896 1.878-1.982-1.961a.29.29 0 0 0-.405 0l-1.981 1.961-1.981-1.961a.29.29 0 0 0-.405 0l-1.982 1.961-1.98-1.96v-.001a.289.289 0 0 0-.405 0l-1.98 1.961-1.982-1.961a.29.29 0 0 0-.405 0l-1.981 1.961-1.981-1.961a.29.29 0 0 0-.405 0l-1.982 1.961-1.897-1.878V.567h20.783v4.516c0 .157.128.284.287.284h4.561v24.071z"/><path fill="#ff6b09" style="fill:var(--color2,#ff6b09)" d="M5.931 3.251h9.384c.158 0 .287-.127.287-.284s-.128-.284-.287-.284H5.931c-.159 0-.287.127-.287.284s.128.284.287.284zM5.931 5.005H20.98c.158 0 .287-.127.287-.284s-.128-.284-.287-.284H5.931c-.159 0-.287.127-.287.284s.128.284.287.284zM5.645 6.58v9.186c0 .157.128.284.287.284h21.357a.285.285 0 0 0 .286-.284V6.58a.285.285 0 0 0-.286-.284H5.932a.285.285 0 0 0-.287.284zm6.333.284h15.024v2.442H11.978V6.864zm0 3.009h15.024v2.441H11.978V9.873zm0 3.008h15.024v2.602H11.978v-2.602zm-5.76-6.017h5.187v2.442H6.218V6.864zm0 3.009h5.187v2.441H6.218V9.873zm0 3.008h5.187v2.602H6.218v-2.602zM27.289 17.327H5.932a.285.285 0 0 0-.287.284v9.186c0 .157.128.283.287.283s.286-.127.286-.283v-2.885h5.187v2.885c0 .157.128.283.286.283s.287-.127.287-.283v-2.885h15.024v2.885c0 .157.128.283.287.283s.286-.127.286-.283v-9.186a.284.284 0 0 0-.286-.284zm-15.884 6.017H6.218v-2.44h5.187v2.44zm0-3.008H6.218v-2.441h5.187v2.441zm15.597 3.008H11.978v-2.44h15.024v2.44zm0-3.008H11.978v-2.441h15.024v2.441zM1.863 0a.286.286 0 0 0-.287.284v29.271c0 .156.128.283.287.283s.287-.127.287-.283V.284A.285.285 0 0 0 1.863 0zM.287 0A.286.286 0 0 0 0 .284v29.271c0 .156.128.283.287.283s.286-.127.286-.283V.284A.285.285 0 0 0 .287 0z"/></symbol><symbol id="icon-how-do-classroom-lern" viewBox="0 0 31 32"><path fill="#ff6b09" style="fill:var(--color2,#ff6b09)" d="M29.467 0H13.758a1.851 1.851 0 0 0-1.855 1.844V8.31L.232 13.181a.377.377 0 0 0-.048.672l1.488.886v9.439a1.708 1.708 0 0 0-1.332 1.66v.91c0 .209.17.378.38.378h2.665c.21 0 .38-.169.38-.378v-.91c0-.809-.571-1.486-1.333-1.659v-8.988l1.177.7c-.036.27-.005-.47-.017 4.395 0 1.599 4.119 2.456 8.311 2.505v7.366c0 .381.117.734.317 1.028.333.49.898.813 1.536.813h15.709a1.85 1.85 0 0 0 1.853-1.842c0 .05-.002-1.56 0-28.313a1.861 1.861 0 0 0-1.852-1.844zM3.006 25.839v.532H1.101v-.532a.953.953 0 0 1 1.905 0zm26.461 5.403H13.758c-.377 0-.71-.19-.907-.478a1.074 1.074 0 0 1-.187-.607v-2.554h17.893v2.555c0 .592-.496 1.084-1.09 1.084zm1.09-4.394H12.664v-4.054c2.046-.023 8.316-.471 8.316-2.507-.002-3.056.005-4.295-.01-4.4l3.413-2.033a.378.378 0 0 0-.048-.672l-11.67-4.871V5.154h17.893v21.695zm-18.273-9.07c-2.108 0-6.167.271-7.931 1.416.011-3.502-.122-3.274.312-3.571 1.095-.802 4.228-1.362 7.619-1.362 1.479 0 7.936.404 7.936 1.764v3.17c-1.78-1.156-5.818-1.416-7.936-1.416zm.38-15.934c0-.599.49-1.087 1.093-1.087h15.709c.603 0 1.091.494 1.091 1.086v2.554H12.664V1.844zm-.38 7.127 11.064 4.618-2.741 1.631c-1.458-1.437-6.279-1.716-8.323-1.716-2.046 0-6.868.28-8.322 1.716L1.22 13.588 12.285 8.97zM4.353 20.287c0-.612 2.724-1.753 7.931-1.753 5.21 0 7.936 1.142 7.936 1.753s-2.726 1.754-7.936 1.754c-5.207 0-7.931-1.142-7.931-1.754z"/><path fill="#ff6b09" style="fill:var(--color2,#ff6b09)" d="M21.611 28.174c-.693 0-1.257.56-1.257 1.25s.564 1.25 1.257 1.25 1.257-.561 1.257-1.25-.564-1.25-1.257-1.25zm0 1.744c-.274 0-.497-.222-.497-.495s.223-.494.497-.494.497.221.497.494-.223.495-.497.495zM23.062 2.2h-2.899v.756h2.899V2.2z"/></symbol><symbol id="icon-how-do-female-st" viewBox="0 0 29 32"><path d="M.061 32h28.427c.141-3.15-.091-8.376-2.085-10.863l-.072-.089-4.355-2.125a4.05 4.05 0 0 0 .16-.802 1.43 1.43 0 0 0-.106-.699c-.719-1.671-2.239-2.55-3.075-2.924a5.056 5.056 0 0 0 .498-1.582c.473-.13.854-.494.979-.98l.508-2.007a1.323 1.323 0 0 0-.472-1.378c1.433-3.163-.967-6.146-1.098-6.303-2.6-2.731-5.884-2.221-6.058-2.19-4.74.964-6.569 4.494-5.536 8.633a1.332 1.332 0 0 0-.321 1.238l.511 2.009c.124.483.502.846.972.977a5.102 5.102 0 0 0 1.223 2.639v1.591c-6.802 3.384-2.492 1.225-7.943 3.904-.011.05-2.558 2.68-2.179 10.475L.062 32zm27.44-1h-4.679v-1.91l3.094-6.883c1.55 2.5 1.608 7.273 1.584 8.792zm-6.386-12.965c-.181 2.015-1.318 1.406-2.02 2.958-.552-.59-.718-1.297-.57-2.055.268-1.391-.605-1.804-.39-3.265l.033-.033v-.005c.019-.02.191-.219.241-.282 1.851.784 2.742 2.242 2.706 2.681zm-9.93-1.583a5.377 5.377 0 0 0 3.012.921 5.365 5.365 0 0 0 2.904-.844c.119 1.149.581 1.379.417 2.224a3.582 3.582 0 0 0-.057.464l-3.186 3.489-4.073-4.462.983-.499v-1.293zm-1.281-4.27V6.849c.496-.891 1.172-1.537 2.012-1.925 2.25 1.237 4.84 3.083 6.577 4.941-.002 2.366.007 2.372-.009 2.567l-.001.012c-.136 2.148-1.954 3.929-4.285 3.929-2.267 0-4.149-1.729-4.285-3.951a2.746 2.746 0 0 1-.008-.241zm-.634 6.544 5.005 5.482 3.36-3.68c.077.215.185.418.308.614l-3.668 4.457-5.47-6.647.465-.227zm10.248-7.349V9.832l.382-.426c.021.782.108-.141-.382 1.97zM13.502 1.039c.203.012 2.935-.404 5.093 1.861.085.104 1.842 2.303 1.136 4.71-.242-1.071-.663-2.443-1.328-3.098l-.728.704c.657.647 1.089 2.616 1.253 3.637-3.015-3.065-6.903-5.005-6.957-5.037-.195.118-1.841.422-3.036 2.679l-.057.108v1.658l-.151.002c-.759-3.562.695-6.392 4.773-7.222zM8.621 9.29l.259 1.018v1.07l-.43-1.69c-.063-.252.129-.347.171-.398zm-.754 10.12 6.408 7.786 4.335-5.268c.472.41.698.468 1.698.968l-.337-1.111c-.086-.282.253-.735.458-.943a3.067 3.067 0 0 0 1.122-1.008l3.537 1.726-3.291 7.322v2.119H6.752v-2.119l-3.293-7.32 4.408-2.15zm-5.234 2.8 3.095 6.881V31H1.049c-.024-1.519.035-6.289 1.584-8.79z"/></symbol><symbol id="icon-how-do-open-book" viewBox="0 0 43 32"><path d="M19.102 4.52H5.443v1.028h13.659V4.52zM19.101 8.357H7.488v1.028h11.613V8.357zM19.101 16.032H7.488v1.028h11.613v-1.028zM19.102 19.869H5.443v1.028h13.659v-1.028zM19.101 23.707H7.488v1.028h11.613v-1.028zM37.851 4.52H24.192v1.028h13.659V4.52zM35.805 8.357H24.192v1.028h11.613V8.357zM37.851 12.195H24.192v1.028h13.659v-1.028zM35.805 16.032H24.192v1.028h11.613v-1.028zM19.102 12.195H5.443v1.028h13.659v-1.028zM37.851 19.869H24.192v1.028h13.659v-1.028zM35.805 23.707H24.192v1.028h11.613v-1.028z"/></symbol><symbol id="icon-how-do-psyhsupport" viewBox="0 0 32 32"><path d="M1.979 12.558v2.831c0 .152.069.295.188.39a10.97 10.97 0 0 0 6.788 2.362c.735 0 1.471-.077 2.19-.224A11.85 11.85 0 0 0 16 18.949c1.695 0 3.327-.349 4.855-1.032 3.069.624 6.338-.046 8.977-2.138a.497.497 0 0 0 .188-.39v-2.831c0-.416-.205-.794-.571-1.027L25.61 9.355c.84-1.073 1.466-2.602 1.574-3.913.319-2.256-1.507-4.646-4.136-4.646a4.162 4.162 0 0 0-2.927 1.227c-.027.027-.057.049-.083.076-.024.025-.043.054-.066.08l-.044.053C19.177.852 17.733 0 16.032 0c-.165 0-.328.011-.488.028-.01-.001-.018-.006-.028-.006-.091 0-.285.024-.388.054-.015.004-.026.015-.041.021a4.453 4.453 0 0 0-2.991 2.156A4.134 4.134 0 0 0 8.94.796c-3.88 0-5.601 4.612-2.539 8.581l-3.875 2.167a1.193 1.193 0 0 0-.549 1.014zm18.867 4.27c-.083.041-.166.085-.25.123l-.002.001A10.862 10.862 0 0 1 16 17.958c-1.602 0-3.148-.338-4.596-1.007a10.876 10.876 0 0 1-2.03-1.221v-2.87c0-.098.047-.184.101-.221l4.509-2.524c.561.48 1.278.832 2.02.832.715 0 1.488-.357 2.038-.843l4.455 2.52a.277.277 0 0 1 .129.237v2.87c-.567.429-1.164.795-1.781 1.098zm8.099-4.446a.203.203 0 0 1 .091.176v2.587a9.864 9.864 0 0 1-6.688 1.98c.367-.23.766-.516 1.075-.76a.497.497 0 0 0 .188-.39v-3.114c0-.435-.217-.835-.606-1.087l-2.366-1.339.575-.321c.698.573 1.297.744 1.835.744.658 0 1.35-.325 1.864-.759l4.031 2.284zM23.05 1.788c1.371 0 2.574.902 3 2.142a3.665 3.665 0 0 1-2.221-1.142.489.489 0 0 0-.783.084 3.657 3.657 0 0 1-2.529 1.76v-.003a4.95 4.95 0 0 0-.032-.653l-.007-.067a5.536 5.536 0 0 0-.121-.609c.559-.902 1.598-1.513 2.694-1.513zm-2.641 3.856a4.603 4.603 0 0 0 3.142-1.762 4.634 4.634 0 0 0 2.682 1.056c-.007 1.792-1.461 4.927-3.183 4.927-1.328 0-2.461-1.912-2.885-3.238.108-.341.186-.669.244-.983zm.1 3.729-.88.491-.888-.502c.329-.413.631-.893.89-1.413.249.526.546 1.01.878 1.425zm-1.327-2.908c-.475 1.427-1.693 3.49-3.176 3.49-1.73 0-3.203-2.864-3.483-4.696.075-.019 2.412.126 4.02-2.001.816.688 1.918 1.143 2.989 1.188.013.647-.143 1.406-.35 2.018zM16.034.992c2.76 0 3.285 2.392 3.328 2.442a4.085 4.085 0 0 1-2.545-1.276.491.491 0 0 0-.784.087 4.048 4.048 0 0 1-3.555 2.022c.135-1.822 1.585-3.274 3.555-3.274zm-3.662 6.946a7.91 7.91 0 0 0 .906 1.438l-.869.487-.9-.51c.341-.438.631-.929.863-1.415zm-3.43-6.15c1.117 0 2.14.571 2.71 1.514-.029.1-.106.498-.116.548a3.646 3.646 0 0 1-1.808-1.062.49.49 0 0 0-.783.086 3.68 3.68 0 0 1-3.154 1.815c.157-1.627 1.507-2.9 3.151-2.9zm-3.108 3.89A4.663 4.663 0 0 0 9.45 3.882a4.578 4.578 0 0 0 2.041.961c.029.575.178 1.273.348 1.789-.272.84-.793 1.841-1.44 2.505l-.014.01c-.405.43-.981.719-1.434.719-1.583 0-2.82-2.508-3.117-4.188zm-2.87 6.88c0-.075.033-.139.067-.162l4.086-2.284c.245.206.302.229.351.265.481.322.922.482 1.523.482.64 0 1.223-.273 1.737-.694.029-.023.06-.045.087-.068l.583.33-2.429 1.361c-.363.236-.58.636-.58 1.071v3.114c0 .152.069.296.188.39.314.249.722.539 1.075.761a9.903 9.903 0 0 1-6.689-1.98v-2.587z"/><path d="M31.034 20.781a2.036 2.036 0 0 0-1.993-.11l-6.076 2.956a2.102 2.102 0 0 0-2.092-2.071l-3.484.001c-1.718-1.504-3.913-2.425-5.909-2.473-1.968-.047-3.735-.06-4.56-.064v-1.002H-.002v11.517H6.92v-1.379c1.898 1.097 6.889 3.845 9.258 3.845.054 0 .106-.001.157-.004 4.165-.235 13.989-7.198 14.637-7.661a2.08 2.08 0 0 0 1.026-1.796c0-.719-.361-1.376-.966-1.758zM5.937 28.542H.985v-9.533h4.952v9.533zm24.53-5.058a.296.296 0 0 0-.044.028c-.101.073-10.207 7.271-14.142 7.494a2.315 2.315 0 0 1-.12.003c-2.077 0-7.143-2.753-9.24-4.001v-6.997c.821.004 2.578.017 4.536.064 1.824.044 3.848.921 5.416 2.346l.14.128 3.86-.001c.612 0 1.111.502 1.111 1.119s-.498 1.119-1.111 1.119h-7.091v.992h7.091c.68 0 1.278-.333 1.662-.839l6.934-3.373c.34-.167.72-.146 1.041.057s.504.537.504.918c0 .391-.21.753-.549.945zM16.492 12.159h-.985v.92h.985v-.92zM16.492 13.992h-.985v.92h.985v-.92zM16.492 15.826h-.985v.92h.985v-.92z"/></symbol><symbol id="icon-icon-phone-footer" viewBox="0 0 32 32"><path fill="#ff6b09" style="fill:var(--color2,#ff6b09)" d="M4.657.003a1.969 1.969 0 0 0-1.392.678L.67 3.65c.004-.009-.01-.008-.084.101a.656.656 0 0 0-.09.184C-.56 7.437.148 11.289 1.872 14.953S6.347 22.123 9.505 25c3.158 2.877 6.721 5.128 10.119 6.244s6.692 1.102 9.133-.742a.536.536 0 0 0 .075-.068c.064-.067.066-.075.056-.065l.01-.013L31.48 27.4c.742-.849.682-2.184-.134-2.956l-6.126-5.799a1.965 1.965 0 0 0-2.84.138l-2.772 3.173c-2.25-.678-4.173-1.828-6.023-3.58s-3.132-3.637-3.993-5.905l2.771-3.173c.742-.849.683-2.184-.133-2.956L6.104.542A1.962 1.962 0 0 0 4.656.003h-.001zm.058 1.301c.19-.009.383.06.541.209l6.126 5.8a.788.788 0 0 1 .05 1.104l-3.063 3.504a.667.667 0 0 0-.124.665c.93 2.641 2.429 4.807 4.493 6.761s4.275 3.304 6.889 4.018a.612.612 0 0 0 .626-.193l3.064-3.505a.716.716 0 0 1 1.06-.051l6.127 5.8a.786.786 0 0 1 .049 1.103l-2.561 2.93c-2.003 1.497-4.826 1.581-7.986.542-3.173-1.043-6.617-3.202-9.666-5.98s-5.702-6.169-7.332-9.633C1.394 10.949.809 7.483 1.696 4.428l2.502-2.862a.736.736 0 0 1 .52-.261z"/></symbol><symbol id="icon-teacher-V" viewBox="0 0 40 32"><path fill="#ff6b09" style="fill:var(--color2,#ff6b09)" d="M35.296 1.514a30.274 30.274 0 0 0-4.369 2.379c-2.797 1.797-5.355 3.936-7.754 6.218-2.398 2.287-4.63 4.735-6.741 7.28-.528.636-2.892 3.47-2.892 3.47L3.71 6.481-.001 16.523 13.292 32c1.291-2.551 2.533-5.07 3.752-7.258.303-.556.62-1.08.923-1.612 0 0 1.56-2.677 1.97-3.352 1.64-2.697 3.414-5.325 5.366-7.821 1.955-2.491 4.08-4.87 6.489-6.961a29.016 29.016 0 0 1 3.842-2.872c1.364-.848 2.814-1.591 4.365-2.125-1.613.31-3.187.848-4.704 1.514z"/></symbol><symbol id="icon-we-guarantee-campfire" viewBox="0 0 23 32"><path fill="#ff6b09" style="fill:var(--color2,#ff6b09)" d="M21.909 16.593c-.284-.635-.675-1.261-1.247-1.983-1.442-1.813-1.882-5.857-1.887-5.896a.488.488 0 0 0-.337-.412.495.495 0 0 0-.518.141c-1.721 1.925-.997 4.897-.606 6.085.108.325.225.708.308 1.096.636 3.137-.592 4.558-.88 4.844-.279.078-.469.039-.645-.15-.606-.664-.807-2.841-.523-5.678a5.797 5.797 0 0 0-.039-1.581c-.598-3.486-2.791-5.722-3.349-6.507C10.651 4.283 10.494.506 10.49.472a.487.487 0 0 0-.763-.383C7.165 1.83 7.385 6.024 7.742 8.365c.083.543.244 1.096.523 1.794.992 2.497-.196 5.721-.205 5.75s-.02.053-.024.082c-.152.795-.406 1.27-.689 1.27a.327.327 0 0 1-.093-.015c-.347-.073-.528-.441-.533-.761-.02-4.136-4.17-5.527-4.214-5.542a.487.487 0 0 0-.586.678c.049.102.205.548.098 2.124a18.09 18.09 0 0 1-.768 4.16C.263 21.124.42 24.174.43 24.32c.759 8.257 12.635 9.704 19.683 5.052.772-.509 1.403-1.091 1.868-1.731 2.601-3.588 1.071-8.461-.068-11.05zM3.845 24.481a.484.484 0 0 1-.46.509h-.029a.487.487 0 0 1-.489-.456c-.044-.708-.034-1.45.02-2.255a.49.49 0 0 1 .978.068 15.622 15.622 0 0 0-.02 2.133zm.239-4.295a.485.485 0 0 1-.484.427c-.02 0-.039 0-.064-.005a.489.489 0 0 1-.425-.538l.235-1.871a.494.494 0 0 1 .548-.422c.269.034.46.276.425.543l-.235 1.867zM18.602 6.633a.484.484 0 0 1-.408-.553c.03-.197.207-1.205.686-1.713.185-.196.493-.206.691-.022s.207.49.022.685c-.203.215-.376.829-.433 1.197a.489.489 0 0 1-.558.405zM.778 9.048C.684 8.687.452 8.093.229 7.899c-.203-.177-.223-.483-.045-.684s.486-.222.69-.045c.527.458.802 1.445.852 1.638a.49.49 0 0 1-.947.241z"/></symbol><symbol id="icon-how-do-ability-no-color" viewBox="0 0 37 32"><path d="M2.318 29.826h12.404A3.786 3.786 0 0 0 18.15 32h.783c1.486 0 2.8-.853 3.429-2.174h12.41c1.278 0 2.318-1.054 2.318-2.349V4.965c0-1.295-1.04-2.349-2.318-2.349H33.52V1.567c0-.864-.693-1.566-1.545-1.566H5.108c-.852 0-1.545.702-1.545 1.566v1.049H2.319C1.041 2.616.001 3.67.001 4.965v22.512c0 1.295 1.04 2.349 2.318 2.349zm29.656-4.832H19.318V6.798c2.925.388 5.193 2.924 5.193 5.992v.706l-.183-.041a.772.772 0 0 0-.921.597l-1.23 5.672a.783.783 0 0 0 .589.932l2.658.594a1.979 1.979 0 0 0 2.352-1.533l.712-3.28a2.007 2.007 0 0 0-1.505-2.388l-.925-.207v-1.051c0-3.934-2.959-7.179-6.739-7.575v-3.65h12.657l-.001 23.428zm-7.223-9.84 1.898.424a.434.434 0 0 1 .33.522l-.712 3.28a.457.457 0 0 1-.515.34l-1.9-.424.899-4.142zM5.108 1.566h12.665v3.649c-3.784.391-6.746 3.64-6.746 7.576v1.051l-.927.207a1.968 1.968 0 0 0-1.24.877 2.007 2.007 0 0 0-.263 1.509l.71 3.277a1.993 1.993 0 0 0 1.936 1.583c.14 0 .279-.015.422-.046l2.647-.593a.783.783 0 0 0 .588-.932l-1.23-5.672a.773.773 0 0 0-.922-.597l-.177.04v-.705c0-3.071 2.272-5.609 5.201-5.993v18.197H5.107V1.566zm7.219 13.588.899 4.141-1.89.423a.439.439 0 0 1-.519-.337l-.712-3.284a.433.433 0 0 1 .328-.52l1.893-.423zM1.545 4.964c0-.432.346-.783.773-.783h1.244v20.813c0 .864.694 1.566 1.545 1.566h26.867c.852 0 1.545-.702 1.545-1.566V4.181h1.252c.426 0 .773.351.773.783v22.512a.778.778 0 0 1-.773.783H21.835a.774.774 0 0 0-.739.553 2.257 2.257 0 0 1-2.165 1.621h-.783c-.998 0-1.867-.649-2.168-1.63a.775.775 0 0 0-.736-.544H2.316a.779.779 0 0 1-.773-.783V4.964z"/></symbol><symbol id="icon-how-do-adobted-no-color" viewBox="0 0 30 32"><path d="m29.977 4.975-.001-.002a.32.32 0 0 0-.06-.09L25.068.084a.329.329 0 0 0-.041-.033l-.009-.006c-.012-.007-.024-.014-.036-.019l-.011-.005a.287.287 0 0 0-.1-.02H3.509a.285.285 0 0 0-.286.284v29.271c0 .019.002.037.006.056l.007.023.009.03.014.026.013.023c.01.014.021.028.033.04l.003.003 2.183 2.161a.288.288 0 0 0 .405 0l1.982-1.961 1.981 1.961c.056.056.129.083.203.083s.146-.027.202-.083l1.981-1.96 1.982 1.96a.288.288 0 0 0 .405 0l1.981-1.96 1.981 1.96a.288.288 0 0 0 .405 0l1.982-1.961 1.981 1.961c.056.056.129.083.202.083s.147-.027.203-.083l1.981-1.96 1.982 1.96a.288.288 0 0 0 .405 0l2.183-2.161.011-.014.024-.029c.007-.009.011-.02.017-.03.003-.007.007-.012.009-.019.006-.013.009-.026.012-.039l.005-.013a.278.278 0 0 0 .006-.058V5.085a.287.287 0 0 0-.023-.108zM25.151.969l3.869 3.83h-3.869V.969zm4.275 28.468-1.896 1.878-1.982-1.961a.29.29 0 0 0-.405 0l-1.981 1.961-1.981-1.961a.29.29 0 0 0-.405 0l-1.982 1.961-1.98-1.96v-.001a.289.289 0 0 0-.405 0l-1.98 1.961-1.982-1.961a.29.29 0 0 0-.405 0l-1.981 1.961-1.981-1.961a.29.29 0 0 0-.405 0l-1.982 1.961-1.897-1.878V.567h20.783v4.516c0 .157.128.284.287.284h4.561v24.071z"/><path d="M5.931 3.251h9.384c.158 0 .287-.127.287-.284s-.128-.284-.287-.284H5.931c-.159 0-.287.127-.287.284s.128.284.287.284zM5.931 5.005H20.98c.158 0 .287-.127.287-.284s-.128-.284-.287-.284H5.931c-.159 0-.287.127-.287.284s.128.284.287.284zM5.645 6.58v9.186c0 .157.128.284.287.284h21.357a.285.285 0 0 0 .286-.284V6.58a.285.285 0 0 0-.286-.284H5.932a.285.285 0 0 0-.287.284zm6.333.284h15.024v2.442H11.978V6.864zm0 3.009h15.024v2.441H11.978V9.873zm0 3.008h15.024v2.602H11.978v-2.602zm-5.76-6.017h5.187v2.442H6.218V6.864zm0 3.009h5.187v2.441H6.218V9.873zm0 3.008h5.187v2.602H6.218v-2.602zM27.289 17.327H5.932a.285.285 0 0 0-.287.284v9.186c0 .157.128.283.287.283s.286-.127.286-.283v-2.885h5.187v2.885c0 .157.128.283.286.283s.287-.127.287-.283v-2.885h15.024v2.885c0 .157.128.283.287.283s.286-.127.286-.283v-9.186a.284.284 0 0 0-.286-.284zm-15.884 6.017H6.218v-2.44h5.187v2.44zm0-3.008H6.218v-2.441h5.187v2.441zm15.597 3.008H11.978v-2.44h15.024v2.44zm0-3.008H11.978v-2.441h15.024v2.441zM1.863 0a.286.286 0 0 0-.287.284v29.271c0 .156.128.283.287.283s.287-.127.287-.283V.284A.285.285 0 0 0 1.863 0zM.287 0A.286.286 0 0 0 0 .284v29.271c0 .156.128.283.287.283s.286-.127.286-.283V.284A.285.285 0 0 0 .287 0z"/></symbol><symbol id="icon-how-do-classroom-lern-no-color" viewBox="0 0 31 32"><path d="M29.467 0H13.758a1.851 1.851 0 0 0-1.855 1.844V8.31L.232 13.181a.377.377 0 0 0-.048.672l1.488.886v9.439a1.708 1.708 0 0 0-1.332 1.66v.91c0 .209.17.378.38.378h2.665c.21 0 .38-.169.38-.378v-.91c0-.809-.571-1.486-1.333-1.659v-8.988l1.177.7c-.036.27-.005-.47-.017 4.395 0 1.599 4.119 2.456 8.311 2.505v7.366c0 .381.117.734.317 1.028.333.49.898.813 1.536.813h15.709a1.85 1.85 0 0 0 1.853-1.842c0 .05-.002-1.56 0-28.313a1.861 1.861 0 0 0-1.852-1.844zM3.006 25.839v.532H1.101v-.532a.953.953 0 0 1 1.905 0zm26.461 5.403H13.758c-.377 0-.71-.19-.907-.478a1.074 1.074 0 0 1-.187-.607v-2.554h17.893v2.555c0 .592-.496 1.084-1.09 1.084zm1.09-4.394H12.664v-4.054c2.046-.023 8.316-.471 8.316-2.507-.002-3.056.005-4.295-.01-4.4l3.413-2.033a.378.378 0 0 0-.048-.672l-11.67-4.871V5.154h17.893v21.695zm-18.273-9.07c-2.108 0-6.167.271-7.931 1.416.011-3.502-.122-3.274.312-3.571 1.095-.802 4.228-1.362 7.619-1.362 1.479 0 7.936.404 7.936 1.764v3.17c-1.78-1.156-5.818-1.416-7.936-1.416zm.38-15.934c0-.599.49-1.087 1.093-1.087h15.709c.603 0 1.091.494 1.091 1.086v2.554H12.664V1.844zm-.38 7.127 11.064 4.618-2.741 1.631c-1.458-1.437-6.279-1.716-8.323-1.716-2.046 0-6.868.28-8.322 1.716L1.22 13.588 12.285 8.97zM4.353 20.287c0-.612 2.724-1.753 7.931-1.753 5.21 0 7.936 1.142 7.936 1.753s-2.726 1.754-7.936 1.754c-5.207 0-7.931-1.142-7.931-1.754z"/><path d="M21.611 28.174c-.693 0-1.257.56-1.257 1.25s.564 1.25 1.257 1.25 1.257-.561 1.257-1.25-.564-1.25-1.257-1.25zm0 1.744c-.274 0-.497-.222-.497-.495s.223-.494.497-.494.497.221.497.494-.223.495-.497.495zM23.062 2.2h-2.899v.756h2.899V2.2z"/></symbol><symbol id="icon-how-do-female-st-no-color" viewBox="0 0 29 32"><path d="M.061 32h28.427c.141-3.15-.091-8.376-2.085-10.863l-.072-.089-4.355-2.125a4.05 4.05 0 0 0 .16-.802 1.43 1.43 0 0 0-.106-.699c-.719-1.671-2.239-2.55-3.075-2.924a5.056 5.056 0 0 0 .498-1.582c.473-.13.854-.494.979-.98l.508-2.007a1.323 1.323 0 0 0-.472-1.378c1.433-3.163-.967-6.146-1.098-6.303-2.6-2.731-5.884-2.221-6.058-2.19-4.74.964-6.569 4.494-5.536 8.633a1.332 1.332 0 0 0-.321 1.238l.511 2.009c.124.483.502.846.972.977a5.102 5.102 0 0 0 1.223 2.639v1.591c-6.802 3.384-2.492 1.225-7.943 3.904-.011.05-2.558 2.68-2.179 10.475L.062 32zm27.44-1h-4.679v-1.91l3.094-6.883c1.55 2.5 1.608 7.273 1.584 8.792zm-6.386-12.965c-.181 2.015-1.318 1.406-2.02 2.958-.552-.59-.718-1.297-.57-2.055.268-1.391-.605-1.804-.39-3.265l.033-.033v-.005c.019-.02.191-.219.241-.282 1.851.784 2.742 2.242 2.706 2.681zm-9.93-1.583a5.377 5.377 0 0 0 3.012.921 5.365 5.365 0 0 0 2.904-.844c.119 1.149.581 1.379.417 2.224a3.582 3.582 0 0 0-.057.464l-3.186 3.489-4.073-4.462.983-.499v-1.293zm-1.281-4.27V6.849c.496-.891 1.172-1.537 2.012-1.925 2.25 1.237 4.84 3.083 6.577 4.941-.002 2.366.007 2.372-.009 2.567l-.001.012c-.136 2.148-1.954 3.929-4.285 3.929-2.267 0-4.149-1.729-4.285-3.951a2.746 2.746 0 0 1-.008-.241zm-.634 6.544 5.005 5.482 3.36-3.68c.077.215.185.418.308.614l-3.668 4.457-5.47-6.647.465-.227zm10.248-7.349V9.832l.382-.426c.021.782.108-.141-.382 1.97zM13.502 1.039c.203.012 2.935-.404 5.093 1.861.085.104 1.842 2.303 1.136 4.71-.242-1.071-.663-2.443-1.328-3.098l-.728.704c.657.647 1.089 2.616 1.253 3.637-3.015-3.065-6.903-5.005-6.957-5.037-.195.118-1.841.422-3.036 2.679l-.057.108v1.658l-.151.002c-.759-3.562.695-6.392 4.773-7.222zM8.621 9.29l.259 1.018v1.07l-.43-1.69c-.063-.252.129-.347.171-.398zm-.754 10.12 6.408 7.786 4.335-5.268c.472.41.698.468 1.698.968l-.337-1.111c-.086-.282.253-.735.458-.943a3.067 3.067 0 0 0 1.122-1.008l3.537 1.726-3.291 7.322v2.119H6.752v-2.119l-3.293-7.32 4.408-2.15zm-5.234 2.8 3.095 6.881V31H1.049c-.024-1.519.035-6.289 1.584-8.79z"/></symbol><symbol id="icon-how-do-open-book" viewBox="0 0 43 32"><path d="M19.102 4.52H5.443v1.028h13.659V4.52zM19.101 8.357H7.488v1.028h11.613V8.357zM19.102 12.195H5.443v1.028h13.659v-1.028zM19.101 16.032H7.488v1.028h11.613v-1.028zM19.102 19.869H5.443v1.028h13.659v-1.028zM19.101 23.707H7.488v1.028h11.613v-1.028zM37.851 4.52H24.192v1.028h13.659V4.52zM35.805 8.357H24.192v1.028h11.613V8.357zM37.851 12.195H24.192v1.028h13.659v-1.028zM35.805 16.032H24.192v1.028h11.613v-1.028zM37.851 19.869H24.192v1.028h13.659v-1.028zM35.805 23.707H24.192v1.028h11.613v-1.028z"/><path d="M42.783 3.348h-1.875V.514a.513.513 0 0 0-.511-.515H25.111a3.95 3.95 0 0 0-3.463 2.026 3.951 3.951 0 0 0-3.464-2.026H2.898a.513.513 0 0 0-.511.515v2.834H.512a.513.513 0 0 0-.511.515v27.622c0 .284.229.515.511.515h42.271c.282 0 .511-.23.511-.515V3.863a.513.513 0 0 0-.511-.515zM25.111 1.029h14.774V28.59H24.02c-.703 0-1.406.299-1.861.685V3.993a2.945 2.945 0 0 1 2.952-2.964zm-21.702 0h14.774a2.936 2.936 0 0 1 2.946 2.851c.001.022.003.091.006.113v25.28a2.979 2.979 0 0 0-1.855-.683H3.408V1.029zM1.023 4.378h1.364v24.727c0 .284.229.515.511.515h16.383c.78 0 1.533.515 1.774 1.351H1.023V4.378zm41.248 26.593H22.239a1.85 1.85 0 0 1 1.78-1.351h16.377c.282 0 .511-.23.511-.515V4.378h1.364v26.593z"/></symbol><symbol id="icon-noun_open-book" viewBox="0 0 32 32"><path d="M14.717 9.194H6.274v.636h8.443v-.636zM14.717 11.566H7.538v.636h7.179v-.636zM14.717 13.939H6.274v.636h8.443v-.636zM14.717 16.311H7.538v.636h7.179v-.636zM14.717 18.683H6.274v.636h8.443v-.636zM14.717 21.055H7.538v.636h7.179v-.636zM26.308 9.194h-8.443v.636h8.443v-.636zM25.043 11.566h-7.179v.636h7.179v-.636zM26.308 13.939h-8.443v.636h8.443v-.636zM25.043 16.311h-7.179v.636h7.179v-.636zM26.308 18.683h-8.443v.636h8.443v-.636zM25.043 21.055h-7.179v.636h7.179v-.636z"/><path d="M29.357 8.47h-1.159V6.718a.317.317 0 0 0-.316-.318h-9.449c-.922 0-1.721.502-2.141 1.253A2.442 2.442 0 0 0 14.151 6.4H4.702a.317.317 0 0 0-.316.318V8.47H3.227a.317.317 0 0 0-.316.318v17.076c0 .176.142.318.316.318h26.131a.317.317 0 0 0 .316-.318V8.788a.317.317 0 0 0-.316-.318zM18.432 7.036h9.133v17.038h-9.808a1.86 1.86 0 0 0-1.151.424V8.869a1.82 1.82 0 0 1 1.825-1.832zm-13.416 0h9.133c.988 0 1.788.774 1.821 1.762 0 .014.002.057.004.07v15.628a1.844 1.844 0 0 0-1.147-.423H5.015V7.035zm-1.475 2.07h.843v15.286c0 .176.142.318.316.318h10.128c.482 0 .948.318 1.097.835H3.541V9.106zm25.5 16.44H16.658c.15-.52.611-.835 1.101-.835h10.124a.317.317 0 0 0 .316-.318V9.107h.843v16.439z"/></symbol><symbol id="icon-how-do-psyhsupport" viewBox="0 0 32 32"><path d="M1.979 12.558v2.831c0 .152.069.295.188.39a10.97 10.97 0 0 0 6.788 2.362c.735 0 1.471-.077 2.19-.224A11.85 11.85 0 0 0 16 18.949c1.695 0 3.327-.349 4.855-1.032 3.069.624 6.338-.046 8.977-2.138a.497.497 0 0 0 .188-.39v-2.831c0-.416-.205-.794-.571-1.027L25.61 9.355c.84-1.073 1.466-2.602 1.574-3.913.319-2.256-1.507-4.646-4.136-4.646a4.162 4.162 0 0 0-2.927 1.227c-.027.027-.057.049-.083.076-.024.025-.043.054-.066.08l-.044.053C19.177.852 17.733 0 16.032 0c-.165 0-.328.011-.488.028-.01-.001-.018-.006-.028-.006-.091 0-.285.024-.388.054-.015.004-.026.015-.041.021a4.453 4.453 0 0 0-2.991 2.156A4.134 4.134 0 0 0 8.94.796c-3.88 0-5.601 4.612-2.539 8.581l-3.875 2.167a1.193 1.193 0 0 0-.549 1.014zm18.867 4.27c-.083.041-.166.085-.25.123l-.002.001A10.862 10.862 0 0 1 16 17.958c-1.602 0-3.148-.338-4.596-1.007a10.876 10.876 0 0 1-2.03-1.221v-2.87c0-.098.047-.184.101-.221l4.509-2.524c.561.48 1.278.832 2.02.832.715 0 1.488-.357 2.038-.843l4.455 2.52a.277.277 0 0 1 .129.237v2.87c-.567.429-1.164.795-1.781 1.098zm8.099-4.446a.203.203 0 0 1 .091.176v2.587a9.864 9.864 0 0 1-6.688 1.98c.367-.23.766-.516 1.075-.76a.497.497 0 0 0 .188-.39v-3.114c0-.435-.217-.835-.606-1.087l-2.366-1.339.575-.321c.698.573 1.297.744 1.835.744.658 0 1.35-.325 1.864-.759l4.031 2.284zM23.05 1.788c1.371 0 2.574.902 3 2.142a3.665 3.665 0 0 1-2.221-1.142.489.489 0 0 0-.783.084 3.657 3.657 0 0 1-2.529 1.76v-.003a4.95 4.95 0 0 0-.032-.653l-.007-.067a5.536 5.536 0 0 0-.121-.609c.559-.902 1.598-1.513 2.694-1.513zm-2.641 3.856a4.603 4.603 0 0 0 3.142-1.762 4.634 4.634 0 0 0 2.682 1.056c-.007 1.792-1.461 4.927-3.183 4.927-1.328 0-2.461-1.912-2.885-3.238.108-.341.186-.669.244-.983zm.1 3.729-.88.491-.888-.502c.329-.413.631-.893.89-1.413.249.526.546 1.01.878 1.425zm-1.327-2.908c-.475 1.427-1.693 3.49-3.176 3.49-1.73 0-3.203-2.864-3.483-4.696.075-.019 2.412.126 4.02-2.001.816.688 1.918 1.143 2.989 1.188.013.647-.143 1.406-.35 2.018zM16.034.992c2.76 0 3.285 2.392 3.328 2.442a4.085 4.085 0 0 1-2.545-1.276.491.491 0 0 0-.784.087 4.048 4.048 0 0 1-3.555 2.022c.135-1.822 1.585-3.274 3.555-3.274zm-3.662 6.946a7.91 7.91 0 0 0 .906 1.438l-.869.487-.9-.51c.341-.438.631-.929.863-1.415zm-3.43-6.15c1.117 0 2.14.571 2.71 1.514-.029.1-.106.498-.116.548a3.646 3.646 0 0 1-1.808-1.062.49.49 0 0 0-.783.086 3.68 3.68 0 0 1-3.154 1.815c.157-1.627 1.507-2.9 3.151-2.9zm-3.108 3.89A4.663 4.663 0 0 0 9.45 3.882a4.578 4.578 0 0 0 2.041.961c.029.575.178 1.273.348 1.789-.272.84-.793 1.841-1.44 2.505l-.014.01c-.405.43-.981.719-1.434.719-1.583 0-2.82-2.508-3.117-4.188zm-2.87 6.88c0-.075.033-.139.067-.162l4.086-2.284c.245.206.302.229.351.265.481.322.922.482 1.523.482.64 0 1.223-.273 1.737-.694.029-.023.06-.045.087-.068l.583.33-2.429 1.361c-.363.236-.58.636-.58 1.071v3.114c0 .152.069.296.188.39.314.249.722.539 1.075.761a9.903 9.903 0 0 1-6.689-1.98v-2.587z"/><path d="M31.034 20.781a2.036 2.036 0 0 0-1.993-.11l-6.076 2.956a2.102 2.102 0 0 0-2.092-2.071l-3.484.001c-1.718-1.504-3.913-2.425-5.909-2.473-1.968-.047-3.735-.06-4.56-.064v-1.002H-.002v11.517H6.92v-1.379c1.898 1.097 6.889 3.845 9.258 3.845.054 0 .106-.001.157-.004 4.165-.235 13.989-7.198 14.637-7.661a2.08 2.08 0 0 0 1.026-1.796c0-.719-.361-1.376-.966-1.758zM5.937 28.542H.985v-9.533h4.952v9.533zm24.53-5.058a.296.296 0 0 0-.044.028c-.101.073-10.207 7.271-14.142 7.494a2.315 2.315 0 0 1-.12.003c-2.077 0-7.143-2.753-9.24-4.001v-6.997c.821.004 2.578.017 4.536.064 1.824.044 3.848.921 5.416 2.346l.14.128 3.86-.001c.612 0 1.111.502 1.111 1.119s-.498 1.119-1.111 1.119h-7.091v.992h7.091c.68 0 1.278-.333 1.662-.839l6.934-3.373c.34-.167.72-.146 1.041.057s.504.537.504.918c0 .391-.21.753-.549.945zM16.492 12.159h-.985v.92h.985v-.92zM16.492 13.992h-.985v.92h.985v-.92zM16.492 15.826h-.985v.92h.985v-.92z"/></symbol></defs></svg>