<svg aria-hidden="true" style="position: absolute; width: 0; height: 0; overflow: hidden;" version="1.1"
    xmlns="http://www.w3.org/2000/svg" xmlns:xlink="http://www.w3.org/1999/xlink">
    <defs>
        <!--===іконка хрестик===-->
        <symbol id="icon-close" viewBox="0 0 32 32">
            <path fill="none" stroke="#fff" style="stroke: var(--color1, #fff)" stroke-linejoin="miter"
                stroke-linecap="round" stroke-miterlimit="4" stroke-width="3.7647" d="M1.882 29.168l27.286-27.286">
            </path>
            <path fill="none" stroke="#fff" style="stroke: var(--color1, #fff)" stroke-linejoin="miter"
                stroke-linecap="round" stroke-miterlimit="4" stroke-width="3.7647" d="M29.169 29.168l-27.286-27.286">
            </path>
        </symbol>
        <!--===іконка меню===-->
        <symbol id="icon-menu" viewBox="0 0 53 32">
            <path stroke-linejoin="miter" stroke-linecap="round" stroke-miterlimit="4" stroke-width="4.5714"
                d="M2.286 2.286h48"></path>
            <path stroke-linejoin="miter" stroke-linecap="round" stroke-miterlimit="4" stroke-width="4.5714"
                d="M2.286 16h48"></path>
            <path stroke-linejoin="miter" stroke-linecap="round" stroke-miterlimit="4" stroke-width="4.5714"
                d="M2.286 29.714h48"></path>
        </symbol>
        <!--===іконка стріла(ліво)===-->
        <symbol id="icon-feedback-arrow1" viewBox="0 0 54 32">
            <path fill="#ff6b09" style="fill: var(--color2, #ff6b09)"
                d="M52 14c1.105 0 2 0.895 2 2s-0.895 2-2 2v-4zM0.586 17.414c-0.781-0.781-0.781-2.047 0-2.828l12.728-12.728c0.781-0.781 2.047-0.781 2.828 0s0.781 2.047 0 2.828l-11.314 11.314 11.314 11.314c0.781 0.781 0.781 2.047 0 2.828s-2.047 0.781-2.828 0l-12.728-12.728zM52 18h-50v-4h50v4z">
            </path>
        </symbol>
        <!--===іконка стріла(право)===-->
        <symbol id="icon-feedback-arrow2" viewBox="0 0 54 32">
            <path fill="#ff6b09" style="fill: var(--color2, #ff6b09)"
                d="M2 14c-1.105 0-2 0.895-2 2s0.895 2 2 2v-4zM53.414 17.414c0.781-0.781 0.781-2.047 0-2.828l-12.728-12.728c-0.781-0.781-2.047-0.781-2.828 0s-0.781 2.047 0 2.828l11.314 11.314-11.314 11.314c-0.781 0.781-0.781 2.047 0 2.828s2.047 0.781 2.828 0l12.728-12.728zM2 18h50v-4h-50v4z">
            </path>
        </symbol>
        <!--===іконка facebook===-->
        <symbol id="icon-feedback-facebook" viewBox="0 0 31 32">
            <path fill="#436eab" style="fill: var(--color3, #436eab)"
                d="M27.65 0.549h-24.332c-0.88 0-1.724 0.347-2.346 0.963s-0.972 1.453-0.972 2.326v24.12c0 0.872 0.35 1.709 0.972 2.326s1.466 0.963 2.346 0.963h9.487v-10.437h-4.355v-4.912h4.355v-3.744c0-4.259 2.558-6.611 6.475-6.611 1.876 0 3.838 0.332 3.838 0.332v4.18h-2.161c-2.13 0-2.794 1.31-2.794 2.654v3.19h4.754l-0.76 4.912h-3.994v10.437h9.487c0.88 0 1.724-0.347 2.346-0.963s0.972-1.453 0.972-2.326v-24.12c0-0.872-0.35-1.709-0.972-2.326s-1.466-0.963-2.346-0.963z">
            </path>
        </symbol>
        <!--===іконка дівчина студент===-->
        <symbol id="icon-hero-female-student-frame" viewBox="0 0 32 32">
            <path fill="#ff6b09" style="fill: var(--color2, #ff6b09)"
                d="M9.753 23.074c1.619 0 10.987 0 12.605 0 0.062-1.437-0.041-3.822-0.924-4.957l-0.032-0.041-1.931-0.97c0.042-0.141 0.063-0.271 0.071-0.366 0.010-0.114-0.006-0.222-0.047-0.319-0.319-0.762-0.993-1.163-1.364-1.335 0.113-0.228 0.186-0.472 0.221-0.722 0.21-0.059 0.379-0.225 0.434-0.447l0.225-0.916c0.040-0.162 0.015-0.329-0.071-0.472-0.037-0.061-0.085-0.113-0.138-0.157 0.636-1.444-0.429-2.805-0.487-2.877-1.153-1.246-2.609-1.013-2.686-1-2.102 0.44-2.913 2.051-2.455 3.94-0.136 0.15-0.193 0.36-0.142 0.565l0.227 0.917c0.055 0.22 0.222 0.386 0.431 0.446 0.064 0.457 0.258 0.871 0.542 1.204v0.726c-3.016 1.544-1.105 0.559-3.522 1.782-0.005 0.023-1.134 1.223-0.966 4.781l0.010 0.217zM21.919 22.618h-2.074v-0.871l1.372-3.141c0.687 1.141 0.713 3.319 0.702 4.012zM19.088 16.701c-0.080 0.92-0.584 0.642-0.896 1.35-0.245-0.269-0.319-0.592-0.253-0.938 0.119-0.635-0.268-0.823-0.173-1.49l0.015-0.015v-0.002c0.008-0.009 0.085-0.1 0.107-0.129 0.821 0.358 1.216 1.023 1.2 1.224zM14.685 15.978c0.381 0.264 0.841 0.42 1.336 0.42 0.466 0 0.908-0.136 1.288-0.385 0.053 0.524 0.257 0.629 0.185 1.015-0.014 0.072-0.021 0.142-0.025 0.212l-1.413 1.592-1.806-2.036 0.436-0.228v-0.59zM14.117 14.030v-0.883c0-0.325 0-1.615 0-1.551 0.22-0.407 0.52-0.702 0.892-0.878 0.998 0.565 2.146 1.407 2.916 2.255-0.001 1.080 0.003 1.083-0.004 1.171l-0 0.006c-0.060 0.98-0.866 1.793-1.9 1.793-1.005 0-1.839-0.789-1.9-1.803-0.003-0.036-0.004-0.073-0.004-0.11zM13.836 17.017l2.219 2.502 1.49-1.679c0.034 0.098 0.082 0.191 0.136 0.28l-1.626 2.034-2.425-3.033 0.206-0.103zM18.38 13.663v-0.705c0.020-0.023 0.189-0.217 0.169-0.194 0.009 0.357 0.048-0.064-0.169 0.899zM15.712 8.945c0.090 0.006 1.301-0.184 2.258 0.849 0.038 0.047 0.817 1.051 0.504 2.149-0.107-0.489-0.294-1.115-0.589-1.414l-0.323 0.321c0.291 0.295 0.483 1.194 0.556 1.66-1.337-1.399-3.061-2.284-3.085-2.299-0.086 0.054-0.816 0.193-1.346 1.223l-0.025 0.049v0.756c-0.023 0-0.090 0.001-0.067 0.001-0.337-1.626 0.308-2.917 2.116-3.296zM13.548 12.71l0.115 0.465v0.488l-0.191-0.771c-0.028-0.115 0.057-0.159 0.076-0.181zM13.214 17.329l2.841 3.553 1.922-2.404c0.209 0.187 0.31 0.214 0.753 0.442l-0.15-0.507c-0.038-0.129 0.112-0.335 0.203-0.43 0.203-0.11 0.371-0.267 0.498-0.46l1.568 0.788-1.459 3.341v0.967h-6.671v-0.967l-1.46-3.341 1.954-0.981zM10.893 18.606l1.372 3.14v0.871h-2.074c-0.010-0.693 0.015-2.87 0.702-4.011z">
            </path>
            <path fill="none" stroke="#ff6b09" style="stroke: var(--color2, #ff6b09)" stroke-linejoin="miter"
                stroke-linecap="butt" stroke-miterlimit="4" stroke-width="0.6275"
                d="M31.686 4.62v-4.306h-31.373v31.373h31.373v-4.306"></path>
        </symbol>
        <!--===іконка хелоуин (текст та вогонь)===-->
        <symbol id="icon-hero-helloen" viewBox="0 0 91 32">
            <path
                d="M13.608 4.836v12.942h-3.661v-5.047h-4.992v5.047h-3.661v-12.942h3.661v4.863h4.992v-4.863h3.661zM27.006 12.786c0 0.025-0.018 0.314-0.055 0.869h-7.285c0.148 0.518 0.431 0.918 0.851 1.202 0.431 0.271 0.968 0.407 1.609 0.407 0.481 0 0.894-0.068 1.239-0.203 0.357-0.136 0.715-0.357 1.072-0.666l1.849 1.923c-0.974 1.085-2.397 1.627-4.271 1.627-1.171 0-2.2-0.222-3.088-0.666s-1.578-1.060-2.071-1.849c-0.481-0.789-0.721-1.683-0.721-2.681 0-0.986 0.234-1.867 0.703-2.644 0.481-0.789 1.14-1.405 1.978-1.849s1.781-0.666 2.829-0.666c0.998 0 1.904 0.21 2.718 0.629 0.814 0.407 1.454 1.005 1.923 1.793 0.481 0.777 0.721 1.701 0.721 2.773zM21.663 10.086c-0.542 0-0.998 0.154-1.368 0.462-0.357 0.308-0.586 0.727-0.684 1.257h4.105c-0.099-0.53-0.333-0.949-0.703-1.257-0.357-0.308-0.807-0.462-1.35-0.462zM29.365 4.059h3.513v13.719h-3.513v-13.719zM35.901 4.059h3.513v13.719h-3.513v-13.719z">
            </path>
            <path fill="#ff6b09" style="fill: var(--color2, #ff6b09)"
                d="M5.547 26.596v3.982h-0.922v-1.633h-1.809v1.633h-0.922v-3.982h0.922v1.57h1.809v-1.57h0.922zM10.596 29.838v0.74h-3.083v-3.982h3.009v0.74h-2.094v0.865h1.849v0.717h-1.849v0.922h2.167zM12.354 26.596h0.922v3.231h1.997v0.751h-2.918v-3.982zM16.811 26.596h0.922v3.231h1.997v0.751h-2.918v-3.982zM21.268 26.596h0.922v3.982h-0.922v-3.982zM25.467 30.646c-0.315 0-0.62-0.042-0.916-0.125-0.292-0.087-0.527-0.199-0.705-0.336l0.313-0.694c0.171 0.125 0.374 0.226 0.609 0.302s0.47 0.114 0.705 0.114c0.262 0 0.455-0.038 0.58-0.114 0.125-0.080 0.188-0.184 0.188-0.313 0-0.095-0.038-0.173-0.114-0.233-0.072-0.064-0.167-0.116-0.284-0.154-0.114-0.038-0.269-0.080-0.466-0.125-0.303-0.072-0.552-0.144-0.745-0.216s-0.36-0.188-0.501-0.347c-0.137-0.159-0.205-0.372-0.205-0.637 0-0.231 0.063-0.44 0.188-0.626 0.125-0.19 0.313-0.339 0.563-0.449 0.254-0.11 0.563-0.165 0.927-0.165 0.254 0 0.502 0.030 0.745 0.091s0.455 0.148 0.637 0.262l-0.284 0.7c-0.368-0.209-0.736-0.313-1.104-0.313-0.258 0-0.449 0.042-0.575 0.125-0.121 0.083-0.182 0.193-0.182 0.33s0.070 0.239 0.21 0.307c0.144 0.064 0.362 0.129 0.654 0.193 0.303 0.072 0.552 0.144 0.745 0.216s0.358 0.186 0.495 0.341c0.14 0.156 0.21 0.366 0.21 0.631 0 0.228-0.064 0.436-0.193 0.626-0.125 0.186-0.315 0.334-0.569 0.444s-0.563 0.165-0.927 0.165zM32.463 26.596v3.982h-0.922v-1.633h-1.809v1.633h-0.922v-3.982h0.922v1.57h1.809v-1.57h0.922z">
            </path>
            <path
                d="M40.148 29.838v0.74h-3.083v-3.982h3.009v0.74h-2.093v0.865h1.849v0.717h-1.849v0.922h2.167zM45.557 26.596v3.982h-0.757l-1.985-2.418v2.418h-0.91v-3.982h0.762l1.98 2.418v-2.418h0.91zM50.214 28.524h0.842v1.616c-0.216 0.163-0.467 0.288-0.751 0.375s-0.571 0.131-0.859 0.131c-0.413 0-0.785-0.087-1.115-0.262-0.33-0.178-0.59-0.423-0.779-0.734-0.186-0.315-0.279-0.669-0.279-1.064s0.093-0.747 0.279-1.058c0.19-0.315 0.451-0.559 0.785-0.734 0.334-0.178 0.709-0.267 1.126-0.267 0.349 0 0.666 0.059 0.95 0.176s0.523 0.288 0.717 0.512l-0.592 0.546c-0.284-0.3-0.628-0.449-1.030-0.449-0.254 0-0.48 0.053-0.677 0.159s-0.351 0.256-0.461 0.449c-0.11 0.193-0.165 0.415-0.165 0.666 0 0.247 0.055 0.466 0.165 0.66s0.262 0.345 0.455 0.455c0.197 0.106 0.421 0.159 0.671 0.159 0.266 0 0.504-0.057 0.717-0.171v-1.166zM52.936 26.596h0.922v3.231h1.997v0.751h-2.918v-3.982zM57.394 26.596h0.922v3.982h-0.922v-3.982zM61.593 30.646c-0.315 0-0.62-0.042-0.916-0.125-0.292-0.087-0.527-0.199-0.705-0.336l0.313-0.694c0.171 0.125 0.374 0.226 0.609 0.302s0.47 0.114 0.705 0.114c0.262 0 0.455-0.038 0.58-0.114 0.125-0.080 0.188-0.184 0.188-0.313 0-0.095-0.038-0.173-0.114-0.233-0.072-0.064-0.167-0.116-0.284-0.154-0.114-0.038-0.269-0.080-0.467-0.125-0.303-0.072-0.552-0.144-0.745-0.216s-0.36-0.188-0.501-0.347c-0.137-0.159-0.205-0.372-0.205-0.637 0-0.231 0.063-0.44 0.188-0.626 0.125-0.19 0.313-0.339 0.563-0.449 0.254-0.11 0.563-0.165 0.927-0.165 0.254 0 0.503 0.030 0.745 0.091s0.455 0.148 0.637 0.262l-0.284 0.7c-0.368-0.209-0.736-0.313-1.104-0.313-0.258 0-0.449 0.042-0.575 0.125-0.121 0.083-0.182 0.193-0.182 0.33s0.070 0.239 0.211 0.307c0.144 0.064 0.362 0.129 0.654 0.193 0.303 0.072 0.552 0.144 0.745 0.216s0.358 0.186 0.495 0.341c0.14 0.156 0.211 0.366 0.211 0.631 0 0.228-0.064 0.436-0.193 0.626-0.125 0.186-0.315 0.334-0.569 0.444s-0.563 0.165-0.927 0.165zM68.588 26.596v3.982h-0.922v-1.633h-1.809v1.633h-0.922v-3.982h0.922v1.57h1.809v-1.57h0.922z">
            </path>
            <path
                d="M74.263 14.949v2.829h-10.391v-12.942h10.15v2.829h-6.527v2.182h5.75v2.736h-5.75v2.367h6.767zM89.348 4.836v12.942h-3.014l-5.713-6.896v6.896h-3.587v-12.942h3.014l5.713 6.896v-6.896h3.587z">
            </path>
            <path fill="#ff6b09" style="fill: var(--color2, #ff6b09)"
                d="M58.695 11.062c-0.189-0.423-0.45-0.84-0.831-1.322-0.962-1.209-1.255-3.905-1.258-3.931-0.013-0.129-0.104-0.236-0.225-0.275-0.124-0.039-0.257-0.003-0.345 0.094-1.147 1.283-0.665 3.265-0.404 4.057 0.072 0.217 0.15 0.472 0.205 0.731 0.424 2.091-0.394 3.038-0.587 3.229-0.186 0.052-0.313 0.026-0.43-0.1-0.404-0.443-0.538-1.894-0.349-3.785 0.039-0.385 0.029-0.731-0.026-1.054-0.399-2.324-1.86-3.815-2.233-4.338-1.023-1.513-1.128-4.031-1.131-4.053-0.003-0.12-0.072-0.226-0.179-0.278-0.104-0.052-0.231-0.045-0.329 0.023-1.708 1.16-1.561 3.956-1.323 5.518 0.055 0.362 0.163 0.731 0.349 1.196 0.662 1.665-0.13 3.814-0.137 3.834s-0.013 0.036-0.016 0.055c-0.101 0.53-0.271 0.847-0.46 0.847-0.020 0-0.039-0.003-0.062-0.010-0.231-0.049-0.352-0.294-0.355-0.507-0.013-2.757-2.78-3.685-2.809-3.695-0.124-0.039-0.261-0.003-0.345 0.097-0.088 0.1-0.104 0.239-0.046 0.356 0.033 0.068 0.137 0.365 0.065 1.416-0.062 0.944-0.235 1.878-0.512 2.773-0.658 2.146-0.554 4.179-0.548 4.276 0.506 5.505 8.423 6.469 13.122 3.368 0.515-0.339 0.935-0.727 1.245-1.154 1.734-2.392 0.714-5.64-0.046-7.366zM46.652 16.321c0.010 0.178-0.127 0.33-0.306 0.339h-0.020c-0.173 0-0.316-0.133-0.326-0.304-0.029-0.472-0.023-0.966 0.013-1.503 0.013-0.178 0.169-0.31 0.349-0.301 0.179 0.013 0.316 0.168 0.303 0.346-0.036 0.511-0.042 0.976-0.013 1.422zM46.812 13.457c-0.020 0.165-0.16 0.284-0.323 0.284-0.013 0-0.026 0-0.042-0.003-0.176-0.023-0.303-0.181-0.284-0.359l0.156-1.248c0.023-0.175 0.183-0.301 0.365-0.281 0.179 0.023 0.306 0.184 0.284 0.362l-0.156 1.245z">
            </path>
            <path fill="#ff6b09" style="fill: var(--color2, #ff6b09)"
                d="M56.49 4.422c-0.178-0.027-0.3-0.192-0.272-0.368 0.020-0.131 0.138-0.804 0.458-1.142 0.123-0.13 0.329-0.137 0.461-0.015s0.138 0.327 0.015 0.457c-0.135 0.143-0.25 0.553-0.289 0.798-0.028 0.174-0.191 0.297-0.372 0.27z">
            </path>
            <path fill="#ff6b09" style="fill: var(--color2, #ff6b09)"
                d="M44.608 6.032c-0.062-0.24-0.217-0.637-0.366-0.766-0.135-0.118-0.149-0.322-0.030-0.456s0.324-0.148 0.46-0.030c0.351 0.305 0.535 0.963 0.568 1.092 0.045 0.173-0.060 0.349-0.235 0.393-0.178 0.044-0.353-0.063-0.397-0.232z">
            </path>
        </symbol>
        <!--===іконка хелоуин (вогонь)===-->
        <symbol id="icon-hero-helloen-fire" viewBox="0 0 23 32">
            <path fill="#ff6b09" style="fill: var(--color2, #ff6b09)"
                d="M21.909 16.593c-0.284-0.635-0.675-1.261-1.247-1.983-1.442-1.813-1.882-5.857-1.887-5.896-0.020-0.194-0.156-0.354-0.337-0.412-0.186-0.058-0.386-0.005-0.518 0.141-1.721 1.925-0.997 4.897-0.606 6.085 0.108 0.325 0.225 0.708 0.308 1.096 0.636 3.137-0.592 4.558-0.88 4.844-0.279 0.078-0.469 0.039-0.645-0.15-0.606-0.664-0.807-2.841-0.523-5.678 0.059-0.577 0.044-1.096-0.039-1.581-0.598-3.486-2.791-5.722-3.349-6.507-1.535-2.269-1.692-6.046-1.696-6.080-0.005-0.179-0.108-0.339-0.269-0.417-0.156-0.078-0.347-0.068-0.494 0.034-2.562 1.741-2.342 5.935-1.985 8.276 0.083 0.543 0.244 1.096 0.523 1.794 0.992 2.497-0.196 5.721-0.205 5.75s-0.020 0.053-0.024 0.082c-0.152 0.795-0.406 1.27-0.689 1.27-0.029 0-0.059-0.005-0.093-0.015-0.347-0.073-0.528-0.441-0.533-0.761-0.020-4.136-4.17-5.527-4.214-5.542-0.186-0.058-0.391-0.005-0.518 0.146-0.132 0.15-0.156 0.359-0.068 0.533 0.049 0.102 0.205 0.548 0.098 2.124-0.093 1.416-0.352 2.817-0.768 4.16-0.988 3.219-0.831 6.269-0.821 6.415 0.759 8.257 12.635 9.704 19.683 5.052 0.772-0.509 1.403-1.091 1.868-1.731 2.601-3.588 1.071-8.461-0.068-11.050zM3.845 24.481c0.015 0.267-0.191 0.495-0.46 0.509h-0.029c-0.259 0-0.474-0.199-0.489-0.456-0.044-0.708-0.034-1.45 0.020-2.255 0.020-0.267 0.254-0.465 0.523-0.451 0.269 0.019 0.474 0.252 0.455 0.519-0.054 0.766-0.064 1.464-0.020 2.133zM4.084 20.185c-0.029 0.247-0.24 0.427-0.484 0.427-0.020 0-0.039 0-0.064-0.005-0.264-0.034-0.455-0.271-0.425-0.538l0.235-1.872c0.034-0.262 0.274-0.451 0.548-0.422 0.269 0.034 0.46 0.276 0.425 0.543l-0.235 1.867z">
            </path>
            <path fill="#ff6b09" style="fill: var(--color2, #ff6b09)"
                d="M18.602 6.633c-0.267-0.041-0.45-0.288-0.408-0.553 0.030-0.197 0.207-1.205 0.686-1.713 0.185-0.196 0.493-0.206 0.691-0.022s0.207 0.49 0.022 0.685c-0.203 0.215-0.376 0.829-0.433 1.197-0.041 0.262-0.287 0.445-0.558 0.405z">
            </path>
            <path fill="#ff6b09" style="fill: var(--color2, #ff6b09)"
                d="M0.778 9.048c-0.094-0.361-0.326-0.955-0.549-1.149-0.203-0.177-0.223-0.483-0.045-0.684s0.486-0.222 0.69-0.045c0.527 0.458 0.802 1.445 0.852 1.638 0.067 0.259-0.091 0.523-0.352 0.59-0.267 0.067-0.529-0.094-0.595-0.349z">
            </path>
        </symbol>
        <!--===іконка (страховка)===-->
        <symbol id="icon-hero-insurance-frame" viewBox="0 0 32 32">
            <path fill="#ff6b09" style="fill: var(--color2, #ff6b09)"
                d="M9.667 14.937c0 0.168-0.255 0.168-0.255 0 0-3.571 2.896-6.467 6.467-6.467 3.572 0 6.467 2.896 6.467 6.467 0 0.168-0.253 0.168-0.253 0 0-2.414-3.966-2.415-3.966 0 0 0.168-0.261 0.168-0.261 0 0-2.408-3.972-2.408-3.972 0 0 0.168-0.261 0.168-0.261 0 0-2.403-3.965-2.42-3.965 0zM13.654 14c0.069-1.389 0.287-2.635 0.605-3.586 0.253-0.756 0.574-1.33 0.937-1.652-2.727 0.298-4.934 2.365-5.427 5.046 0.939-1.354 3.107-1.246 3.885 0.192zM17.845 13.938c-0.070-1.336-0.282-2.531-0.588-3.443-0.788-2.359-1.969-2.359-2.757 0-0.305 0.911-0.516 2.107-0.588 3.443 0.847-1.44 3.085-1.44 3.933 0zM21.988 13.808c-0.492-2.681-2.699-4.748-5.427-5.046 0.365 0.322 0.684 0.896 0.937 1.652 0.318 0.951 0.536 2.197 0.605 3.586 0.783-1.446 2.957-1.531 3.885-0.192z">
            </path>
            <path fill="#ff6b09" style="fill: var(--color2, #ff6b09)"
                d="M15.030 17.896v-1.313c-0.237 0.157-0.423 0.4-0.423 0.696 0 0.289 0.189 0.479 0.423 0.617zM15.285 18.304c-0.453-0.208-0.931-0.45-0.931-1.025 0-0.592 0.45-0.889 0.931-1.11v2.135z">
            </path>
            <path fill="#ff6b09" style="fill: var(--color2, #ff6b09)"
                d="M16.727 19.878v1.328c0.24-0.159 0.427-0.403 0.427-0.699 0-0.292-0.192-0.489-0.427-0.629zM16.474 19.469c0.455 0.211 0.936 0.461 0.936 1.038 0 0.594-0.453 0.89-0.936 1.11v-2.148z">
            </path>
            <path fill="#ff6b09" style="fill: var(--color2, #ff6b09)"
                d="M16.727 15.089c1.044 0.241 2.117 1.023 2.117 2.191 0 1-1.69 0.963-1.69 0 0-0.298-0.188-0.542-0.427-0.699v1.869c0.966 0.316 2.12 0.882 2.12 2.058 0 1.169-1.073 1.95-2.12 2.189-0.005 1.113-1.695 1.111-1.698-0.002-0.595-0.137-1.113-0.415-1.487-0.783-0.392-0.388-0.624-0.875-0.624-1.405 0-0.985 1.688-0.985 1.688 0 0 0.295 0.186 0.537 0.423 0.695v-1.867c-0.959-0.31-2.119-0.893-2.119-2.058 0-1.169 1.073-1.95 2.119-2.189 0.005-1.113 1.695-1.111 1.698 0.002zM15.285 15.092v0.203c-0.994 0.197-2.12 0.834-2.12 1.982 0 1.104 1.237 1.598 2.12 1.872v2.467c-0.478-0.218-0.931-0.513-0.931-1.108 0-0.65-1.182-0.65-1.182 0 0 0.459 0.205 0.884 0.55 1.223 0.438 0.434 0.969 0.64 1.563 0.757v0.205c0 0.783 1.189 0.783 1.189 0v-0.203c0.997-0.198 2.119-0.835 2.119-1.982 0-1.114-1.233-1.594-2.119-1.873v-2.466c0.479 0.218 0.936 0.513 0.936 1.111 0 0.634 1.18 0.66 1.18 0 0-1.147-1.121-1.785-2.116-1.983v-0.205c0-0.783-1.189-0.783-1.189 0z">
            </path>
            <path fill="none" stroke="#ff6b09" style="stroke: var(--color2, #ff6b09)" stroke-linejoin="miter"
                stroke-linecap="butt" stroke-miterlimit="4" stroke-width="0.6275"
                d="M31.686 4.62v-4.306h-31.373v31.373h31.373v-4.306"></path>
        </symbol>
        <!--===іконка (мод тех (на хиро)===-->
        <symbol id="icon-hero-mod-teach-frame" viewBox="0 0 32 32">
            <path fill="#ff6b09" style="fill: var(--color2, #ff6b09)"
                d="M22.375 8.412h-7.256c-0.472 0-0.857 0.384-0.857 0.857v3.003l-5.39 2.262c-0.061 0.026-0.103 0.083-0.107 0.149s0.028 0.129 0.085 0.163l0.687 0.411v4.384c-0.352 0.080-0.615 0.395-0.615 0.771v0.423c0 0.097 0.079 0.176 0.176 0.176h1.231c0.097 0 0.176-0.079 0.176-0.176v-0.423c0-0.376-0.264-0.69-0.616-0.771v-4.175l0.544 0.325c-0.017 0.125-0.002-0.218-0.008 2.041 0 0.743 1.903 1.141 3.838 1.163v3.421c0 0.177 0.054 0.341 0.147 0.478 0.154 0.228 0.415 0.378 0.709 0.378h7.256c0.472 0 0.856-0.384 0.856-0.856 0 0.023-0.001-0.725 0-13.151 0-0.466-0.385-0.857-0.855-0.857zM10.153 20.413v0.247h-0.88v-0.247c0-0.243 0.197-0.441 0.439-0.441 0.243 0 0.441 0.198 0.441 0.441zM22.375 22.923h-7.256c-0.174 0-0.328-0.088-0.419-0.222-0.054-0.081-0.086-0.178-0.086-0.282v-1.186h8.264v1.186c0 0.275-0.229 0.503-0.503 0.503zM22.878 20.882h-8.264v-1.883c0.945-0.011 3.841-0.219 3.841-1.165-0.001-1.419 0.003-1.995-0.004-2.044l1.576-0.944c0.057-0.034 0.089-0.097 0.085-0.163s-0.046-0.124-0.107-0.149l-5.39-2.262v-1.466h8.264v10.076zM14.438 16.669c-0.974 0-2.848 0.126-3.663 0.658 0.005-1.627-0.056-1.521 0.144-1.659 0.506-0.373 1.953-0.633 3.519-0.633 0.683 0 3.665 0.188 3.665 0.819v1.472c-0.822-0.537-2.687-0.658-3.665-0.658zM14.614 9.268c0-0.278 0.226-0.505 0.505-0.505h7.256c0.279 0 0.504 0.23 0.504 0.505v1.186h-8.264v-1.186zM14.438 12.579l5.11 2.145-1.266 0.758c-0.673-0.668-2.9-0.797-3.844-0.797-0.945 0-3.172 0.13-3.844 0.797l-1.267-0.758 5.11-2.145zM10.776 17.834c0-0.284 1.258-0.814 3.663-0.814 2.406 0 3.665 0.53 3.665 0.814s-1.259 0.815-3.665 0.815c-2.405 0-3.663-0.53-3.663-0.815z">
            </path>
            <path fill="#ff6b09" style="fill: var(--color2, #ff6b09)"
                d="M18.747 21.498c-0.32 0-0.581 0.26-0.581 0.581s0.26 0.581 0.581 0.581c0.32 0 0.581-0.261 0.581-0.581s-0.26-0.581-0.581-0.581zM18.747 22.308c-0.127 0-0.23-0.103-0.23-0.23s0.103-0.229 0.23-0.229c0.127 0 0.23 0.103 0.23 0.229s-0.103 0.23-0.23 0.23z">
            </path>
            <path fill="#ff6b09" style="fill: var(--color2, #ff6b09)" d="M19.416 9.433h-1.339v0.351h1.339v-0.351z">
            </path>
            <path fill="none" stroke="#ff6b09" style="stroke: var(--color2, #ff6b09)" stroke-linejoin="miter"
                stroke-linecap="butt" stroke-miterlimit="4" stroke-width="0.6275"
                d="M31.686 4.62v-4.306h-31.373v31.373h31.373v-4.306"></path>
        </symbol>
        <!--===іконка волна===-->
        <symbol id="icon-hero-wave-bg" viewBox="0 0 58 32">
            <path fill="#fff" style="fill: var(--color1, #fff)"
                d="M8.089 27.641c-3.425 0.363-5.869 2.422-8.089 2.733v-30.374h58.119v16.692c-1.638-0.387-8.054 6.083-11.703 7.386-5.369 0.882-2.082-3.425-14.646 2.681s-19.642 0.454-23.681 0.882z">
            </path>
        </symbol>
        <!--===іконка how-do-ability===-->
        <symbol id="icon-how-do-ability" viewBox="0 0 37 32">
            <path fill="#ff6b09" style="fill: var(--color2, #ff6b09)"
                d="M2.318 29.826h12.404c0.629 1.321 1.944 2.174 3.428 2.174h0.783c1.486 0 2.8-0.853 3.429-2.174h12.41c1.278 0 2.318-1.054 2.318-2.349v-22.512c0-1.295-1.040-2.349-2.318-2.349h-1.252v-1.049c0-0.864-0.693-1.566-1.545-1.566h-26.867c-0.852 0-1.545 0.702-1.545 1.566v1.049h-1.244c-1.278 0-2.318 1.054-2.318 2.349v22.512c0 1.295 1.040 2.349 2.318 2.349zM31.974 24.994h-12.656v-18.196c2.925 0.388 5.193 2.924 5.193 5.992v0.706l-0.183-0.041c-0.199-0.043-0.408-0.007-0.582 0.105s-0.295 0.289-0.339 0.492l-1.23 5.672c-0.091 0.422 0.172 0.839 0.589 0.932l2.658 0.594c0.137 0.029 0.277 0.045 0.417 0.045 0.935 0 1.731-0.648 1.935-1.578l0.712-3.28c0.235-1.077-0.439-2.148-1.505-2.388l-0.925-0.207v-1.051c0-3.934-2.959-7.179-6.739-7.575v-3.65h12.657l-0.001 23.428zM24.751 15.154l1.898 0.424c0.237 0.054 0.382 0.282 0.33 0.522l-0.712 3.28c-0.051 0.237-0.31 0.384-0.515 0.34l-1.9-0.424 0.899-4.142zM5.108 1.566h12.665v3.649c-3.784 0.391-6.746 3.64-6.746 7.576v1.051l-0.927 0.207c-0.516 0.116-0.957 0.428-1.24 0.877-0.284 0.451-0.378 0.988-0.263 1.509l0.71 3.277c0.192 0.917 1.007 1.583 1.936 1.583 0.14 0 0.279-0.015 0.422-0.046l2.647-0.593c0.416-0.093 0.679-0.51 0.588-0.932l-1.23-5.672c-0.044-0.203-0.166-0.38-0.339-0.492s-0.383-0.148-0.583-0.105l-0.177 0.040v-0.705c0-3.071 2.272-5.609 5.201-5.993v18.197h-12.665v-23.428zM12.327 15.154l0.899 4.141-1.89 0.423c-0.232 0.053-0.469-0.102-0.519-0.337l-0.712-3.284c-0.026-0.114-0.005-0.231 0.056-0.328 0.062-0.098 0.159-0.166 0.272-0.192l1.893-0.423zM1.545 4.964c0-0.432 0.346-0.783 0.773-0.783h1.244v20.813c0 0.864 0.694 1.566 1.545 1.566h26.867c0.852 0 1.545-0.702 1.545-1.566v-20.813h1.252c0.426 0 0.773 0.351 0.773 0.783v22.512c0 0.432-0.346 0.783-0.773 0.783h-12.936c-0.34 0-0.639 0.224-0.739 0.553-0.294 0.97-1.164 1.621-2.165 1.621h-0.783c-0.998 0-1.867-0.649-2.168-1.63-0.103-0.324-0.4-0.544-0.736-0.544h-12.928c-0.426 0-0.773-0.351-0.773-0.783v-22.512z">
            </path>
        </symbol>
        <!--===іконка how-do-adobted===-->
        <symbol id="icon-how-do-adobted" viewBox="0 0 30 32">
            <path fill="#ff6b09" style="fill: var(--color2, #ff6b09)"
                d="M29.977 4.975c0-0.001-0.001-0.001-0.001-0.002-0.007-0.016-0.015-0.031-0.024-0.045-0.001-0.001-0.002-0.002-0.002-0.003-0.010-0.015-0.021-0.029-0.034-0.042l-4.848-4.799c-0.013-0.012-0.026-0.023-0.041-0.033-0.003-0.002-0.006-0.004-0.009-0.006-0.012-0.007-0.024-0.014-0.036-0.019-0.004-0.002-0.007-0.003-0.011-0.005-0.032-0.013-0.066-0.019-0.1-0.020-0.002 0-0.004-0-0.005-0h-21.357c-0.158 0-0.286 0.127-0.286 0.284v29.271c0 0.019 0.002 0.037 0.006 0.056 0.002 0.008 0.005 0.015 0.007 0.023 0.003 0.010 0.006 0.020 0.009 0.030 0.004 0.009 0.009 0.017 0.014 0.026 0.004 0.007 0.008 0.016 0.013 0.023 0.010 0.014 0.021 0.028 0.033 0.040 0.001 0.001 0.001 0.002 0.003 0.003l2.183 2.161c0.112 0.111 0.293 0.111 0.405 0l1.982-1.961 1.981 1.961c0.056 0.056 0.129 0.083 0.203 0.083s0.146-0.027 0.202-0.083l1.981-1.96 1.982 1.96c0.112 0.111 0.293 0.111 0.405 0l1.981-1.96 1.981 1.96c0.112 0.111 0.293 0.111 0.405 0l1.982-1.961 1.981 1.961c0.056 0.056 0.129 0.083 0.202 0.083s0.147-0.027 0.203-0.083l1.981-1.96 1.982 1.96c0.112 0.111 0.293 0.111 0.405 0l2.183-2.161c0.004-0.004 0.007-0.009 0.011-0.014 0.008-0.009 0.017-0.019 0.024-0.029 0.007-0.009 0.011-0.020 0.017-0.030 0.003-0.007 0.007-0.012 0.009-0.019 0.006-0.013 0.009-0.026 0.012-0.039 0.001-0.005 0.003-0.009 0.005-0.013 0.004-0.019 0.006-0.038 0.006-0.058v-24.47c-0.001-0.037-0.008-0.074-0.023-0.108zM25.151 0.969l3.869 3.83h-3.869v-3.83zM29.426 29.437l-1.896 1.878-1.982-1.961c-0.112-0.11-0.293-0.11-0.405 0l-1.981 1.961-1.981-1.961c-0.112-0.11-0.293-0.11-0.405 0l-1.982 1.961-1.98-1.96c0-0-0-0.001-0-0.001-0.056-0.055-0.129-0.083-0.203-0.083s-0.147 0.028-0.202 0.083c-0 0-0 0-0 0l-1.98 1.961-1.982-1.961c-0.112-0.11-0.293-0.11-0.405 0l-1.981 1.961-1.981-1.961c-0.112-0.11-0.293-0.11-0.405 0l-1.982 1.961-1.897-1.878v-28.87h20.783v4.516c0 0.157 0.128 0.284 0.287 0.284h4.561l0 24.071z">
            </path>
            <path fill="#ff6b09" style="fill: var(--color2, #ff6b09)"
                d="M5.931 3.251h9.384c0.158 0 0.287-0.127 0.287-0.284s-0.128-0.284-0.287-0.284h-9.384c-0.159 0-0.287 0.127-0.287 0.284s0.128 0.284 0.287 0.284z">
            </path>
            <path fill="#ff6b09" style="fill: var(--color2, #ff6b09)"
                d="M5.931 5.005h15.049c0.158 0 0.287-0.127 0.287-0.284s-0.128-0.284-0.287-0.284h-15.049c-0.159 0-0.287 0.127-0.287 0.284s0.128 0.284 0.287 0.284z">
            </path>
            <path fill="#ff6b09" style="fill: var(--color2, #ff6b09)"
                d="M5.645 6.58v9.186c0 0.157 0.128 0.284 0.287 0.284h21.357c0.158 0 0.286-0.127 0.286-0.284v-9.186c0-0.157-0.128-0.284-0.286-0.284h-21.357c-0.159 0-0.287 0.127-0.287 0.284zM11.978 6.864h15.024v2.442h-15.024v-2.442zM11.978 9.873h15.024v2.441h-15.024v-2.441zM11.978 12.881h15.024v2.602h-15.024v-2.602zM6.218 6.864h5.187v2.442h-5.187v-2.442zM6.218 9.873h5.187v2.441h-5.187v-2.441zM6.218 12.881h5.187v2.602h-5.187v-2.602z">
            </path>
            <path fill="#ff6b09" style="fill: var(--color2, #ff6b09)"
                d="M27.289 17.327h-21.357c-0.159 0-0.287 0.127-0.287 0.284v9.186c0 0.157 0.128 0.283 0.287 0.283s0.286-0.127 0.286-0.283v-2.885h5.187v2.885c0 0.157 0.128 0.283 0.286 0.283s0.287-0.127 0.287-0.283v-2.885h15.024v2.885c0 0.157 0.128 0.283 0.287 0.283s0.286-0.127 0.286-0.283v-9.186c0.001-0.157-0.127-0.284-0.286-0.284zM11.405 23.344h-5.187v-2.44h5.187v2.44zM11.405 20.336h-5.187v-2.441h5.187v2.441zM27.002 23.344h-15.024v-2.44h15.024v2.44zM27.002 20.336h-15.024v-2.441h15.024v2.441z">
            </path>
            <path fill="#ff6b09" style="fill: var(--color2, #ff6b09)"
                d="M1.863 0c-0.158 0-0.287 0.127-0.287 0.284v29.271c0 0.156 0.128 0.283 0.287 0.283s0.287-0.127 0.287-0.283v-29.271c0-0.157-0.128-0.284-0.287-0.284z">
            </path>
            <path fill="#ff6b09" style="fill: var(--color2, #ff6b09)"
                d="M0.287 0c-0.158 0-0.287 0.127-0.287 0.284v29.271c0 0.156 0.128 0.283 0.287 0.283s0.286-0.127 0.286-0.283v-29.271c0-0.157-0.128-0.284-0.286-0.284z">
            </path>
        </symbol>
        <!--===іконка how-do-classroom===-->
        <symbol id="icon-how-do-classroom-lern" viewBox="0 0 31 32">
            <path fill="#ff6b09" style="fill: var(--color2, #ff6b09)"
                d="M29.467 0h-15.709c-1.023 0-1.855 0.827-1.855 1.844v6.466l-11.671 4.871c-0.132 0.055-0.222 0.179-0.232 0.321s0.061 0.278 0.184 0.351l1.488 0.886v9.439c-0.761 0.173-1.332 0.85-1.332 1.66v0.91c0 0.209 0.17 0.378 0.38 0.378h2.665c0.21 0 0.38-0.169 0.38-0.378v-0.91c0-0.809-0.571-1.486-1.333-1.659v-8.988l1.177 0.7c-0.036 0.27-0.005-0.47-0.017 4.395 0 1.599 4.119 2.456 8.311 2.505v7.366c0 0.381 0.117 0.734 0.317 1.028 0.333 0.49 0.898 0.813 1.536 0.813h15.709c1.022 0 1.853-0.827 1.853-1.842 0 0.050-0.002-1.56 0-28.313 0-1.003-0.834-1.844-1.852-1.844zM3.006 25.839v0.532h-1.905v-0.532c0-0.524 0.426-0.95 0.95-0.95 0.527 0 0.955 0.426 0.955 0.95zM29.467 31.242h-15.709c-0.377 0-0.71-0.19-0.907-0.478-0.118-0.173-0.187-0.382-0.187-0.607v-2.554h17.893v2.555c0 0.592-0.496 1.084-1.090 1.084zM30.557 26.848h-17.893v-4.054c2.046-0.023 8.316-0.471 8.316-2.507-0.002-3.056 0.005-4.295-0.010-4.4l3.413-2.033c0.123-0.073 0.194-0.209 0.184-0.351s-0.1-0.266-0.232-0.321l-11.67-4.871v-3.157h17.893v21.695zM12.284 17.778c-2.108 0-6.167 0.271-7.931 1.416 0.011-3.502-0.122-3.274 0.312-3.571 1.095-0.802 4.228-1.362 7.619-1.362 1.479 0 7.936 0.404 7.936 1.764v3.17c-1.78-1.156-5.818-1.416-7.936-1.416zM12.664 1.844c0-0.599 0.49-1.087 1.093-1.087h15.709c0.603 0 1.091 0.494 1.091 1.086v2.554h-17.893v-2.553zM12.284 8.971l11.064 4.618-2.741 1.631c-1.458-1.437-6.279-1.716-8.323-1.716-2.046 0-6.868 0.28-8.322 1.716l-2.742-1.632 11.065-4.618zM4.353 20.287c0-0.612 2.724-1.753 7.931-1.753 5.21 0 7.936 1.142 7.936 1.753s-2.726 1.754-7.936 1.754c-5.207 0-7.931-1.142-7.931-1.754z">
            </path>
            <path fill="#ff6b09" style="fill: var(--color2, #ff6b09)"
                d="M21.611 28.174c-0.693 0-1.257 0.56-1.257 1.25s0.564 1.25 1.257 1.25c0.693 0 1.257-0.561 1.257-1.25s-0.564-1.25-1.257-1.25zM21.611 29.918c-0.274 0-0.497-0.222-0.497-0.495s0.223-0.494 0.497-0.494c0.274 0 0.497 0.221 0.497 0.494s-0.223 0.495-0.497 0.495z">
            </path>
            <path fill="#ff6b09" style="fill: var(--color2, #ff6b09)" d="M23.062 2.2h-2.899v0.756h2.899v-0.756z"></path>
        </symbol>
        <!--===іконка how-do-дівчина-студент===-->
        <symbol id="icon-how-do-female-st" viewBox="0 0 29 32">
            <path 
                d="M0.061 32c3.652 0 24.779 0 28.427 0 0.141-3.15-0.091-8.376-2.085-10.863l-0.072-0.089-4.355-2.125c0.095-0.31 0.141-0.594 0.16-0.802 0.022-0.25-0.014-0.486-0.106-0.699-0.719-1.671-2.239-2.55-3.075-2.924 0.255-0.499 0.419-1.034 0.498-1.582 0.473-0.13 0.854-0.494 0.979-0.98l0.508-2.007c0.090-0.354 0.034-0.721-0.16-1.033-0.083-0.135-0.191-0.248-0.312-0.345 1.433-3.163-0.967-6.146-1.098-6.303-2.6-2.731-5.884-2.221-6.058-2.19-4.74 0.964-6.569 4.494-5.536 8.633-0.306 0.329-0.434 0.788-0.321 1.238l0.511 2.009c0.124 0.483 0.502 0.846 0.972 0.977 0.145 1.002 0.582 1.909 1.223 2.639v1.591c-6.802 3.384-2.492 1.225-7.943 3.904-0.011 0.050-2.558 2.68-2.179 10.475l0.023 0.476zM27.501 31h-4.679v-1.91l3.094-6.883c1.55 2.5 1.608 7.273 1.584 8.792zM21.115 18.035c-0.181 2.015-1.318 1.406-2.020 2.958-0.552-0.59-0.718-1.297-0.57-2.055 0.268-1.391-0.605-1.804-0.39-3.265l0.033-0.033v-0.005c0.019-0.020 0.191-0.219 0.241-0.282 1.851 0.784 2.742 2.242 2.706 2.681zM11.185 16.452c0.859 0.579 1.897 0.921 3.012 0.921 1.051 0 2.049-0.297 2.904-0.844 0.119 1.149 0.581 1.379 0.417 2.224-0.031 0.157-0.047 0.311-0.057 0.464l-3.186 3.489-4.073-4.462 0.983-0.499v-1.293zM9.904 12.182v-1.934c0-0.712 0-3.538 0-3.399 0.496-0.891 1.172-1.537 2.012-1.925 2.25 1.237 4.84 3.083 6.577 4.941-0.002 2.366 0.007 2.372-0.009 2.567l-0.001 0.012c-0.136 2.148-1.954 3.929-4.285 3.929-2.267 0-4.149-1.729-4.285-3.951-0.007-0.080-0.008-0.159-0.008-0.241zM9.27 18.726l5.005 5.482 3.36-3.68c0.077 0.215 0.185 0.418 0.308 0.614l-3.668 4.457-5.47-6.647 0.465-0.227zM19.518 11.377v-1.545c0.045-0.050 0.427-0.476 0.382-0.426 0.021 0.782 0.108-0.141-0.382 1.97zM13.502 1.039c0.203 0.012 2.935-0.404 5.093 1.861 0.085 0.104 1.842 2.303 1.136 4.71-0.242-1.071-0.663-2.443-1.328-3.098l-0.728 0.704c0.657 0.647 1.089 2.616 1.253 3.637-3.015-3.065-6.903-5.005-6.957-5.037-0.195 0.118-1.841 0.422-3.036 2.679l-0.057 0.108v1.658c-0.051 0.001-0.202 0.002-0.151 0.002-0.759-3.562 0.695-6.392 4.773-7.222zM8.621 9.29l0.259 1.018v1.070l-0.43-1.69c-0.063-0.252 0.129-0.347 0.171-0.398zM7.867 19.41l6.408 7.786 4.335-5.268c0.472 0.41 0.698 0.468 1.698 0.968l-0.337-1.111c-0.086-0.282 0.253-0.735 0.458-0.943 0.457-0.241 0.837-0.584 1.122-1.008l3.537 1.726-3.291 7.322v2.119h-15.045v-2.119l-3.293-7.32 4.408-2.15zM2.633 22.21l3.095 6.881v1.909h-4.679c-0.024-1.519 0.035-6.289 1.584-8.79z">
            </path>
        </symbol>
        <!--===іконка how-do-відкрита книга===-->
        <symbol id="icon-how-do-open-book" viewBox="0 0 43 32">
            <path d="M19.102 4.52h-13.659v1.028h13.659v-1.028z"></path>
            <path d="M19.101 8.357h-11.613v1.028h11.613v-1.028z"></path>
            <path d="M19.101 16.032h-11.613v1.028h11.613v-1.028z"></path>
            <path d="M19.102 19.869h-13.659v1.028h13.659v-1.028z"></path>
            <path d="M19.101 23.707h-11.613v1.028h11.613v-1.028z"></path>
            <path d="M37.851 4.52h-13.659v1.028h13.659v-1.028z"></path>
            <path d="M35.805 8.357h-11.613v1.028h11.613v-1.028z"></path>
            <path d="M37.851 12.195h-13.659v1.028h13.659v-1.028z"></path>
            <path d="M35.805 16.032h-11.613v1.028h11.613v-1.028z"></path>
            <path d="M19.102 12.195h-13.659v1.028h13.659v-1.028z"></path>
            <path d="M37.851 19.869h-13.659v1.028h13.659v-1.028z"></path>
            <path d="M35.805 23.707h-11.613v1.028h11.613v-1.028z"></path>
            <pat
                d="M42.783 3.348h-1.875v-2.834c0-0.284-0.229-0.515-0.511-0.515h-15.286c-1.492 0-2.785 0.812-3.463 2.026-0.679-1.215-1.972-2.026-3.464-2.026h-15.286c-0.282 0-0.511 0.231-0.511 0.515v2.834h-1.875c-0.282 0-0.511 0.231-0.511 0.515v27.622c0 0.284 0.229 0.515 0.511 0.515 5.134 0 37.119 0 42.271 0 0.282 0 0.511-0.23 0.511-0.515v-27.622c0-0.284-0.229-0.515-0.511-0.515zM25.111 1.029h14.774c0 4.608 0 16.747 0 27.561h-15.865c-0.703 0-1.406 0.299-1.861 0.685v-25.282c0-1.643 1.307-2.964 2.952-2.964zM3.409 1.029h14.774c1.599 0 2.893 1.252 2.946 2.851 0.001 0.022 0.003 0.091 0.006 0.113v25.28c-0.454-0.386-1.149-0.683-1.855-0.683h-15.872c0-10.811 0-22.954 0-27.561zM1.023 4.378h1.364v24.727c0 0.284 0.229 0.515 0.511 0.515h16.383c0.78 0 1.533 0.515 1.774 1.351h-20.032v-26.593zM42.271 30.971h-20.032c0.243-0.841 0.989-1.351 1.78-1.351h16.377c0.282 0 0.511-0.23 0.511-0.515v-24.727h1.364v26.593z">
                </path>
        </symbol>

        <!--===іконка how-do-психол допомога===-->

        <symbol id="icon-how-do-psyhsupport" viewBox="0 0 32 32">
            <path 
                d="M1.979 12.558v2.831c0 0.152 0.069 0.295 0.188 0.39 1.921 1.523 4.332 2.362 6.788 2.362 0.735 0 1.471-0.077 2.19-0.224 1.533 0.683 3.165 1.032 4.855 1.032 1.695 0 3.327-0.349 4.855-1.032 3.069 0.624 6.338-0.046 8.977-2.138 0.119-0.094 0.188-0.238 0.188-0.39v-2.831c0-0.416-0.205-0.794-0.571-1.027l-3.839-2.176c0.84-1.073 1.466-2.602 1.574-3.913 0.319-2.256-1.507-4.646-4.136-4.646-1.105 0-2.156 0.458-2.927 1.227-0.027 0.027-0.057 0.049-0.083 0.076-0.024 0.025-0.043 0.054-0.066 0.080-0.015 0.017-0.029 0.036-0.044 0.053-0.751-1.38-2.195-2.232-3.896-2.232-0.165 0-0.328 0.011-0.488 0.028-0.010-0.001-0.018-0.006-0.028-0.006-0.091 0-0.285 0.024-0.388 0.054-0.015 0.004-0.026 0.015-0.041 0.021-1.27 0.259-2.346 1.034-2.991 2.156-0.776-0.911-1.916-1.457-3.156-1.457-3.88 0-5.601 4.612-2.539 8.581l-3.875 2.167c-0.344 0.219-0.549 0.598-0.549 1.014zM20.846 16.828c-0.083 0.041-0.166 0.085-0.25 0.123l-0 0c-0.001 0-0.001 0.001-0.002 0.001-1.442 0.667-2.987 1.006-4.594 1.006-1.602 0-3.148-0.338-4.596-1.007-0.705-0.323-1.387-0.734-2.030-1.221v-2.87c0-0.098 0.047-0.184 0.101-0.221l4.509-2.524c0.561 0.48 1.278 0.832 2.020 0.832 0.715 0 1.488-0.357 2.038-0.843l4.455 2.52c0.082 0.053 0.129 0.139 0.129 0.237v2.87c-0.567 0.429-1.164 0.795-1.781 1.098zM28.945 12.382c0.058 0.037 0.091 0.101 0.091 0.176v2.587c-1.954 1.477-4.306 2.148-6.688 1.98 0.367-0.23 0.766-0.516 1.075-0.76 0.119-0.094 0.188-0.238 0.188-0.39v-3.114c0-0.435-0.217-0.835-0.606-1.087l-2.366-1.339 0.575-0.321c0.698 0.573 1.297 0.744 1.835 0.744 0.658 0 1.35-0.325 1.864-0.759l4.031 2.284zM23.050 1.788c1.371 0 2.574 0.902 3 2.142-0.827-0.099-1.636-0.51-2.221-1.142-0.106-0.114-0.256-0.173-0.413-0.155-0.154 0.016-0.291 0.105-0.37 0.239-0.562 0.948-1.482 1.58-2.529 1.76 0-0.001-0-0.002-0-0.003 0.005-0.216-0.008-0.434-0.032-0.653-0.002-0.022-0.005-0.044-0.007-0.067-0.032-0.248-0.106-0.559-0.121-0.609 0.559-0.902 1.598-1.513 2.694-1.513zM20.409 5.644c1.244-0.137 2.369-0.767 3.142-1.762 0.762 0.629 1.728 1.010 2.682 1.056-0.007 1.792-1.461 4.927-3.183 4.927-1.328 0-2.461-1.912-2.885-3.238 0.108-0.341 0.186-0.669 0.244-0.983zM20.509 9.373l-0.88 0.491-0.888-0.502c0.329-0.413 0.631-0.893 0.89-1.413 0.249 0.526 0.546 1.010 0.878 1.425zM19.182 6.465c-0.475 1.427-1.693 3.49-3.176 3.49-1.73 0-3.203-2.864-3.483-4.696 0.075-0.019 2.412 0.126 4.020-2.001 0.816 0.688 1.918 1.143 2.989 1.188 0.013 0.647-0.143 1.406-0.35 2.018zM16.034 0.992c2.76 0 3.285 2.392 3.328 2.442-1.001-0.102-1.914-0.596-2.545-1.276-0.106-0.114-0.26-0.171-0.413-0.154s-0.291 0.106-0.371 0.241c-0.547 0.932-1.404 1.589-2.397 1.868-0.383 0.108-0.797 0.157-1.158 0.154 0.135-1.822 1.585-3.274 3.555-3.274zM12.372 7.938c0.255 0.515 0.559 1.006 0.906 1.438l-0.869 0.487-0.9-0.51c0.341-0.438 0.631-0.929 0.863-1.415zM8.942 1.788c1.117 0 2.14 0.571 2.71 1.514-0.029 0.1-0.106 0.498-0.116 0.548-0.685-0.165-1.314-0.533-1.808-1.062-0.106-0.114-0.256-0.17-0.413-0.154-0.154 0.017-0.291 0.106-0.37 0.24-0.659 1.119-1.867 1.815-3.154 1.815 0.157-1.627 1.507-2.9 3.151-2.9zM5.834 5.678c1.415-0.014 2.75-0.686 3.616-1.796 0.592 0.491 1.294 0.813 2.041 0.961 0.029 0.575 0.178 1.273 0.348 1.789-0.272 0.84-0.793 1.841-1.44 2.505-0.004 0.004-0.010 0.006-0.014 0.010-0.405 0.43-0.981 0.719-1.434 0.719-1.583 0-2.82-2.508-3.117-4.188zM2.964 12.558c0-0.075 0.033-0.139 0.067-0.162l4.086-2.284c0.245 0.206 0.302 0.229 0.351 0.265l-0 0c0.481 0.322 0.922 0.482 1.523 0.482 0.64 0 1.223-0.273 1.737-0.694 0.029-0.023 0.060-0.045 0.087-0.068l0.583 0.33-2.429 1.361c-0.363 0.236-0.58 0.636-0.58 1.071v3.114c0 0.152 0.069 0.296 0.188 0.39 0.314 0.249 0.722 0.539 1.075 0.761-2.417 0.166-4.768-0.528-6.689-1.98v-2.587z">
            </path>
            <path 
                d="M31.034 20.781c-0.606-0.383-1.351-0.423-1.993-0.11l-6.076 2.956c-0.021-1.145-0.949-2.071-2.092-2.071l-3.484 0.001c-1.718-1.504-3.913-2.425-5.909-2.473-1.968-0.047-3.735-0.060-4.56-0.064v-1.002h-6.922v11.517h6.922v-1.379c1.898 1.097 6.889 3.845 9.258 3.845 0.054 0 0.106-0.001 0.157-0.004 4.165-0.235 13.989-7.198 14.637-7.661 0.634-0.37 1.026-1.056 1.026-1.796 0-0.719-0.361-1.376-0.966-1.758zM5.937 28.542h-4.952v-9.533h4.952v9.533zM30.467 23.484c-0.015 0.008-0.030 0.017-0.044 0.028-0.101 0.073-10.207 7.271-14.142 7.494-0.039 0.002-0.078 0.003-0.12 0.003-2.077 0-7.143-2.753-9.24-4.001v-6.997c0.821 0.004 2.578 0.017 4.536 0.064 1.824 0.044 3.848 0.921 5.416 2.346l0.14 0.128 3.86-0.001c0.612 0 1.111 0.502 1.111 1.119s-0.498 1.119-1.111 1.119h-7.091v0.992h7.091c0.68 0 1.278-0.333 1.662-0.839l6.934-3.373c0.34-0.167 0.72-0.146 1.041 0.057s0.504 0.537 0.504 0.918c0 0.391-0.21 0.753-0.549 0.945z">
            </path>
            <path  d="M16.492 12.159h-0.985v0.92h0.985v-0.92z">
            </path>
            <path  d="M16.492 13.992h-0.985v0.92h0.985v-0.92z">
            </path>
            <path  d="M16.492 15.826h-0.985v0.92h0.985v-0.92z">
            </path>
        </symbol>

        <!--===іконка how-do-телефон у футері===-->
        <symbol id="icon-icon-phone-footer" viewBox="0 0 32 32">
            <path fill="#ff6b09" style="fill: var(--color2, #ff6b09)"
                d="M4.657 0.003c-0.515 0.025-1.021 0.253-1.392 0.678l-2.595 2.969c0.004-0.009-0.010-0.008-0.084 0.101-0.039 0.056-0.070 0.118-0.090 0.184-1.056 3.502-0.348 7.354 1.376 11.018s4.475 7.17 7.633 10.047c3.158 2.877 6.721 5.128 10.119 6.244s6.692 1.102 9.133-0.742c0.027-0.020 0.052-0.043 0.075-0.068 0.064-0.067 0.066-0.075 0.056-0.065l0.010-0.013 2.582-2.956c0.742-0.849 0.682-2.184-0.134-2.956l-6.126-5.799c-0.816-0.772-2.098-0.711-2.84 0.138l-2.772 3.173c-2.25-0.678-4.173-1.828-6.023-3.58s-3.132-3.637-3.993-5.905l2.771-3.173c0.742-0.849 0.683-2.184-0.133-2.956l-6.126-5.8c-0.408-0.386-0.933-0.564-1.448-0.539l-0.001 0zM4.715 1.304c0.19-0.009 0.383 0.060 0.541 0.209l6.126 5.8c0.316 0.299 0.337 0.776 0.050 1.104l-3.063 3.504c-0.077 0.089-0.129 0.197-0.151 0.314s-0.013 0.239 0.027 0.351c0.93 2.641 2.429 4.807 4.493 6.761s4.275 3.304 6.889 4.018c0.111 0.030 0.228 0.028 0.339-0.005s0.21-0.099 0.287-0.188l3.064-3.505c0.287-0.328 0.744-0.35 1.060-0.051l6.127 5.8c0.316 0.299 0.336 0.775 0.049 1.103l-2.561 2.93c-2.003 1.497-4.826 1.581-7.986 0.542-3.173-1.043-6.617-3.202-9.666-5.98s-5.702-6.169-7.332-9.633c-1.614-3.429-2.199-6.895-1.312-9.95l2.502-2.862c0.143-0.164 0.33-0.252 0.52-0.261l0 0z">
            </path>
        </symbol>
        <!--===іконка how-do-позначка "V"===-->
        <symbol id="icon-teacher-V" viewBox="0 0 40 32">
            <path fill="#ff6b09" style="fill: var(--color2, #ff6b09)"
                d="M35.296 1.514c-1.521 0.664-2.978 1.475-4.369 2.379-2.797 1.797-5.355 3.936-7.754 6.218-2.398 2.287-4.63 4.735-6.741 7.28-0.528 0.636-2.892 3.47-2.892 3.47l-9.83-14.38-3.711 10.042 13.293 15.477c1.291-2.551 2.533-5.070 3.752-7.258 0.303-0.556 0.62-1.080 0.923-1.612 0 0 1.56-2.677 1.97-3.352 1.64-2.697 3.414-5.325 5.366-7.821 1.955-2.491 4.080-4.87 6.489-6.961 1.199-1.052 2.475-2.025 3.842-2.872 1.364-0.848 2.814-1.591 4.365-2.125-1.613 0.31-3.187 0.848-4.704 1.514z">
            </path>
        </symbol>
        <!--===іконка how-do-вогонь===-->
        <symbol id="icon-we-guarantee-campfire" viewBox="0 0 23 32">
            <path fill="#ff6b09" style="fill: var(--color2, #ff6b09)"
                d="M21.909 16.593c-0.284-0.635-0.675-1.261-1.247-1.983-1.442-1.813-1.882-5.857-1.887-5.896-0.020-0.194-0.156-0.354-0.337-0.412-0.186-0.058-0.386-0.005-0.518 0.141-1.721 1.925-0.997 4.897-0.606 6.085 0.108 0.325 0.225 0.708 0.308 1.096 0.636 3.137-0.592 4.558-0.88 4.844-0.279 0.078-0.469 0.039-0.645-0.15-0.606-0.664-0.807-2.841-0.523-5.678 0.059-0.577 0.044-1.096-0.039-1.581-0.598-3.486-2.791-5.722-3.349-6.507-1.535-2.269-1.692-6.046-1.696-6.080-0.005-0.179-0.108-0.339-0.269-0.417-0.156-0.078-0.347-0.068-0.494 0.034-2.562 1.741-2.342 5.935-1.985 8.276 0.083 0.543 0.244 1.096 0.523 1.794 0.992 2.497-0.196 5.721-0.205 5.75s-0.020 0.053-0.024 0.082c-0.152 0.795-0.406 1.27-0.689 1.27-0.029 0-0.059-0.005-0.093-0.015-0.347-0.073-0.528-0.441-0.533-0.761-0.020-4.136-4.17-5.527-4.214-5.542-0.186-0.058-0.391-0.005-0.518 0.145-0.132 0.15-0.156 0.359-0.068 0.533 0.049 0.102 0.205 0.548 0.098 2.124-0.093 1.416-0.352 2.817-0.768 4.16-0.988 3.219-0.831 6.269-0.821 6.415 0.759 8.257 12.635 9.704 19.683 5.052 0.772-0.509 1.403-1.091 1.868-1.731 2.601-3.588 1.071-8.461-0.068-11.050zM3.845 24.481c0.015 0.267-0.191 0.494-0.46 0.509h-0.029c-0.259 0-0.474-0.199-0.489-0.456-0.044-0.708-0.034-1.45 0.020-2.255 0.020-0.267 0.254-0.465 0.523-0.451 0.269 0.019 0.474 0.252 0.455 0.519-0.054 0.766-0.064 1.464-0.020 2.133zM4.084 20.186c-0.029 0.247-0.24 0.427-0.484 0.427-0.020 0-0.039 0-0.064-0.005-0.264-0.034-0.455-0.272-0.425-0.538l0.235-1.871c0.034-0.262 0.274-0.451 0.548-0.422 0.269 0.034 0.46 0.276 0.425 0.543l-0.235 1.867z">
            </path>
            <path fill="#ff6b09" style="fill: var(--color2, #ff6b09)"
                d="M18.602 6.633c-0.267-0.041-0.45-0.288-0.408-0.553 0.030-0.197 0.207-1.205 0.686-1.713 0.185-0.196 0.493-0.206 0.691-0.022s0.207 0.49 0.022 0.685c-0.203 0.215-0.376 0.829-0.433 1.197-0.041 0.262-0.287 0.445-0.558 0.405z">
            </path>
            <path fill="#ff6b09" style="fill: var(--color2, #ff6b09)"
                d="M0.778 9.048c-0.094-0.361-0.326-0.955-0.549-1.149-0.203-0.177-0.223-0.483-0.045-0.684s0.486-0.222 0.69-0.045c0.527 0.458 0.802 1.445 0.852 1.638 0.067 0.259-0.091 0.523-0.352 0.59-0.267 0.067-0.529-0.094-0.595-0.349z">
            </path>
        </symbol>
        <!--===іконка how-do-abilite (без кольору)=-->
        <symbol id="icon-how-do-ability-no-color" viewBox="0 0 37 32">
            <path
                d="M2.318 29.826h12.404c0.629 1.321 1.944 2.174 3.428 2.174h0.783c1.486 0 2.8-0.853 3.429-2.174h12.41c1.278 0 2.318-1.054 2.318-2.349v-22.512c0-1.295-1.040-2.349-2.318-2.349h-1.252v-1.049c0-0.864-0.693-1.566-1.545-1.566h-26.867c-0.852 0-1.545 0.702-1.545 1.566v1.049h-1.244c-1.278 0-2.318 1.054-2.318 2.349v22.512c0 1.295 1.040 2.349 2.318 2.349zM31.974 24.994h-12.656v-18.196c2.925 0.388 5.193 2.924 5.193 5.992v0.706l-0.183-0.041c-0.199-0.043-0.408-0.007-0.582 0.105s-0.295 0.289-0.339 0.492l-1.23 5.672c-0.091 0.422 0.172 0.839 0.589 0.932l2.658 0.594c0.137 0.029 0.277 0.045 0.417 0.045 0.935 0 1.731-0.648 1.935-1.578l0.712-3.28c0.235-1.077-0.439-2.148-1.505-2.388l-0.925-0.207v-1.051c0-3.934-2.959-7.179-6.739-7.575v-3.65h12.657l-0.001 23.428zM24.751 15.154l1.898 0.424c0.237 0.054 0.382 0.282 0.33 0.522l-0.712 3.28c-0.051 0.237-0.31 0.384-0.515 0.34l-1.9-0.424 0.899-4.142zM5.108 1.566h12.665v3.649c-3.784 0.391-6.746 3.64-6.746 7.576v1.051l-0.927 0.207c-0.516 0.116-0.957 0.428-1.24 0.877-0.284 0.451-0.378 0.988-0.263 1.509l0.71 3.277c0.192 0.917 1.007 1.583 1.936 1.583 0.14 0 0.279-0.015 0.422-0.046l2.647-0.593c0.416-0.093 0.679-0.51 0.588-0.932l-1.23-5.672c-0.044-0.203-0.166-0.38-0.339-0.492s-0.383-0.148-0.583-0.105l-0.177 0.040v-0.705c0-3.071 2.272-5.609 5.201-5.993v18.197h-12.665v-23.428zM12.327 15.154l0.899 4.141-1.89 0.423c-0.232 0.053-0.469-0.102-0.519-0.337l-0.712-3.284c-0.026-0.114-0.005-0.231 0.056-0.328 0.062-0.098 0.159-0.166 0.272-0.192l1.893-0.423zM1.545 4.964c0-0.432 0.346-0.783 0.773-0.783h1.244v20.813c0 0.864 0.694 1.566 1.545 1.566h26.867c0.852 0 1.545-0.702 1.545-1.566v-20.813h1.252c0.426 0 0.773 0.351 0.773 0.783v22.512c0 0.432-0.346 0.783-0.773 0.783h-12.936c-0.34 0-0.639 0.224-0.739 0.553-0.294 0.97-1.164 1.621-2.165 1.621h-0.783c-0.998 0-1.867-0.649-2.168-1.63-0.103-0.324-0.4-0.544-0.736-0.544h-12.928c-0.426 0-0.773-0.351-0.773-0.783v-22.512z">
            </path>
        </symbol>
        <!--===іконка how-do-adopted (без кольору)=-->
        <symbol id="icon-how-do-adobted-no-color" viewBox="0 0 30 32">
            <path
                d="M29.977 4.975c0-0.001-0.001-0.001-0.001-0.002-0.007-0.016-0.015-0.031-0.024-0.045-0.001-0.001-0.002-0.002-0.002-0.003-0.010-0.015-0.021-0.029-0.034-0.042l-4.848-4.799c-0.013-0.012-0.026-0.023-0.041-0.033-0.003-0.002-0.006-0.004-0.009-0.006-0.012-0.007-0.024-0.014-0.036-0.019-0.004-0.002-0.007-0.003-0.011-0.005-0.032-0.013-0.066-0.019-0.1-0.020-0.002 0-0.004-0-0.005-0h-21.357c-0.158 0-0.286 0.127-0.286 0.284v29.271c0 0.019 0.002 0.037 0.006 0.056 0.002 0.008 0.005 0.015 0.007 0.023 0.003 0.010 0.006 0.020 0.009 0.030 0.004 0.009 0.009 0.017 0.014 0.026 0.004 0.007 0.008 0.016 0.013 0.023 0.010 0.014 0.021 0.028 0.033 0.040 0.001 0.001 0.001 0.002 0.003 0.003l2.183 2.161c0.112 0.111 0.293 0.111 0.405 0l1.982-1.961 1.981 1.961c0.056 0.056 0.129 0.083 0.203 0.083s0.146-0.027 0.202-0.083l1.981-1.96 1.982 1.96c0.112 0.111 0.293 0.111 0.405 0l1.981-1.96 1.981 1.96c0.112 0.111 0.293 0.111 0.405 0l1.982-1.961 1.981 1.961c0.056 0.056 0.129 0.083 0.202 0.083s0.147-0.027 0.203-0.083l1.981-1.96 1.982 1.96c0.112 0.111 0.293 0.111 0.405 0l2.183-2.161c0.004-0.004 0.007-0.009 0.011-0.014 0.008-0.009 0.017-0.019 0.024-0.029 0.007-0.009 0.011-0.020 0.017-0.030 0.003-0.007 0.007-0.012 0.009-0.019 0.006-0.013 0.009-0.026 0.012-0.039 0.001-0.005 0.003-0.009 0.005-0.013 0.004-0.019 0.006-0.038 0.006-0.058v-24.47c-0.001-0.037-0.008-0.074-0.023-0.108zM25.151 0.969l3.869 3.83h-3.869v-3.83zM29.426 29.437l-1.896 1.878-1.982-1.961c-0.112-0.11-0.293-0.11-0.405 0l-1.981 1.961-1.981-1.961c-0.112-0.11-0.293-0.11-0.405 0l-1.982 1.961-1.98-1.96c0-0-0-0.001-0-0.001-0.056-0.055-0.129-0.083-0.203-0.083s-0.147 0.028-0.202 0.083c-0 0-0 0-0 0l-1.98 1.961-1.982-1.961c-0.112-0.11-0.293-0.11-0.405 0l-1.981 1.961-1.981-1.961c-0.112-0.11-0.293-0.11-0.405 0l-1.982 1.961-1.897-1.878v-28.87h20.783v4.516c0 0.157 0.128 0.284 0.287 0.284h4.561l0 24.071z">
            </path>
            <path
                d="M5.931 3.251h9.384c0.158 0 0.287-0.127 0.287-0.284s-0.128-0.284-0.287-0.284h-9.384c-0.159 0-0.287 0.127-0.287 0.284s0.128 0.284 0.287 0.284z">
            </path>
            <path
                d="M5.931 5.005h15.049c0.158 0 0.287-0.127 0.287-0.284s-0.128-0.284-0.287-0.284h-15.049c-0.159 0-0.287 0.127-0.287 0.284s0.128 0.284 0.287 0.284z">
            </path>
            <path
                d="M5.645 6.58v9.186c0 0.157 0.128 0.284 0.287 0.284h21.357c0.158 0 0.286-0.127 0.286-0.284v-9.186c0-0.157-0.128-0.284-0.286-0.284h-21.357c-0.159 0-0.287 0.127-0.287 0.284zM11.978 6.864h15.024v2.442h-15.024v-2.442zM11.978 9.873h15.024v2.441h-15.024v-2.441zM11.978 12.881h15.024v2.602h-15.024v-2.602zM6.218 6.864h5.187v2.442h-5.187v-2.442zM6.218 9.873h5.187v2.441h-5.187v-2.441zM6.218 12.881h5.187v2.602h-5.187v-2.602z">
            </path>
            <path
                d="M27.289 17.327h-21.357c-0.159 0-0.287 0.127-0.287 0.284v9.186c0 0.157 0.128 0.283 0.287 0.283s0.286-0.127 0.286-0.283v-2.885h5.187v2.885c0 0.157 0.128 0.283 0.286 0.283s0.287-0.127 0.287-0.283v-2.885h15.024v2.885c0 0.157 0.128 0.283 0.287 0.283s0.286-0.127 0.286-0.283v-9.186c0.001-0.157-0.127-0.284-0.286-0.284zM11.405 23.344h-5.187v-2.44h5.187v2.44zM11.405 20.336h-5.187v-2.441h5.187v2.441zM27.002 23.344h-15.024v-2.44h15.024v2.44zM27.002 20.336h-15.024v-2.441h15.024v2.441z">
            </path>
            <path
                d="M1.863 0c-0.158 0-0.287 0.127-0.287 0.284v29.271c0 0.156 0.128 0.283 0.287 0.283s0.287-0.127 0.287-0.283v-29.271c0-0.157-0.128-0.284-0.287-0.284z">
            </path>
            <path
                d="M0.287 0c-0.158 0-0.287 0.127-0.287 0.284v29.271c0 0.156 0.128 0.283 0.287 0.283s0.286-0.127 0.286-0.283v-29.271c0-0.157-0.128-0.284-0.286-0.284z">
            </path>
        </symbol>
        <!--===іконка how-do-classroom (без кольору)=-->
        <symbol id="icon-how-do-classroom-lern-no-color" viewBox="0 0 31 32">
            <path
                d="M29.467 0h-15.709c-1.023 0-1.855 0.827-1.855 1.844v6.466l-11.671 4.871c-0.132 0.055-0.222 0.179-0.232 0.321s0.061 0.278 0.184 0.351l1.488 0.886v9.439c-0.761 0.173-1.332 0.85-1.332 1.66v0.91c0 0.209 0.17 0.378 0.38 0.378h2.665c0.21 0 0.38-0.169 0.38-0.378v-0.91c0-0.809-0.571-1.486-1.333-1.659v-8.988l1.177 0.7c-0.036 0.27-0.005-0.47-0.017 4.395 0 1.599 4.119 2.456 8.311 2.505v7.366c0 0.381 0.117 0.734 0.317 1.028 0.333 0.49 0.898 0.813 1.536 0.813h15.709c1.022 0 1.853-0.827 1.853-1.842 0 0.050-0.002-1.56 0-28.313 0-1.003-0.834-1.844-1.852-1.844zM3.006 25.839v0.532h-1.905v-0.532c0-0.524 0.426-0.95 0.95-0.95 0.527 0 0.955 0.426 0.955 0.95zM29.467 31.242h-15.709c-0.377 0-0.71-0.19-0.907-0.478-0.118-0.173-0.187-0.382-0.187-0.607v-2.554h17.893v2.555c0 0.592-0.496 1.084-1.090 1.084zM30.557 26.848h-17.893v-4.054c2.046-0.023 8.316-0.471 8.316-2.507-0.002-3.056 0.005-4.295-0.010-4.4l3.413-2.033c0.123-0.073 0.194-0.209 0.184-0.351s-0.1-0.266-0.232-0.321l-11.67-4.871v-3.157h17.893v21.695zM12.284 17.778c-2.108 0-6.167 0.271-7.931 1.416 0.011-3.502-0.122-3.274 0.312-3.571 1.095-0.802 4.228-1.362 7.619-1.362 1.479 0 7.936 0.404 7.936 1.764v3.17c-1.78-1.156-5.818-1.416-7.936-1.416zM12.664 1.844c0-0.599 0.49-1.087 1.093-1.087h15.709c0.603 0 1.091 0.494 1.091 1.086v2.554h-17.893v-2.553zM12.284 8.971l11.064 4.618-2.741 1.631c-1.458-1.437-6.279-1.716-8.323-1.716-2.046 0-6.868 0.28-8.322 1.716l-2.742-1.632 11.065-4.618zM4.353 20.287c0-0.612 2.724-1.753 7.931-1.753 5.21 0 7.936 1.142 7.936 1.753s-2.726 1.754-7.936 1.754c-5.207 0-7.931-1.142-7.931-1.754z">
            </path>
            <path
                d="M21.611 28.174c-0.693 0-1.257 0.56-1.257 1.25s0.564 1.25 1.257 1.25c0.693 0 1.257-0.561 1.257-1.25s-0.564-1.25-1.257-1.25zM21.611 29.918c-0.274 0-0.497-0.222-0.497-0.495s0.223-0.494 0.497-0.494c0.274 0 0.497 0.221 0.497 0.494s-0.223 0.495-0.497 0.495z">
            </path>
            <path d="M23.062 2.2h-2.899v0.756h2.899v-0.756z"></path>
        </symbol>
        <!--===іконка how-do-студент (без кольору)=-->
        <symbol id="icon-how-do-female-st-no-color" viewBox="0 0 29 32">
            <path
                d="M0.061 32c3.652 0 24.779 0 28.427 0 0.141-3.15-0.091-8.376-2.085-10.863l-0.072-0.089-4.355-2.125c0.095-0.31 0.141-0.594 0.16-0.802 0.022-0.25-0.014-0.486-0.106-0.699-0.719-1.671-2.239-2.55-3.075-2.924 0.255-0.499 0.419-1.034 0.498-1.582 0.473-0.13 0.854-0.494 0.979-0.98l0.508-2.007c0.090-0.354 0.034-0.721-0.16-1.033-0.083-0.135-0.191-0.248-0.312-0.345 1.433-3.163-0.967-6.146-1.098-6.303-2.6-2.731-5.884-2.221-6.058-2.19-4.74 0.964-6.569 4.494-5.536 8.633-0.306 0.329-0.434 0.788-0.321 1.238l0.511 2.009c0.124 0.483 0.502 0.846 0.972 0.977 0.145 1.002 0.582 1.909 1.223 2.639v1.591c-6.802 3.384-2.492 1.225-7.943 3.904-0.011 0.050-2.558 2.68-2.179 10.475l0.023 0.476zM27.501 31h-4.679v-1.91l3.094-6.883c1.55 2.5 1.608 7.273 1.584 8.792zM21.115 18.035c-0.181 2.015-1.318 1.406-2.020 2.958-0.552-0.59-0.718-1.297-0.57-2.055 0.268-1.391-0.605-1.804-0.39-3.265l0.033-0.033v-0.005c0.019-0.020 0.191-0.219 0.241-0.282 1.851 0.784 2.742 2.242 2.706 2.681zM11.185 16.452c0.859 0.579 1.897 0.921 3.012 0.921 1.051 0 2.049-0.297 2.904-0.844 0.119 1.149 0.581 1.379 0.417 2.224-0.031 0.157-0.047 0.311-0.057 0.464l-3.186 3.489-4.073-4.462 0.983-0.499v-1.293zM9.904 12.182v-1.934c0-0.712 0-3.538 0-3.399 0.496-0.891 1.172-1.537 2.012-1.925 2.25 1.237 4.84 3.083 6.577 4.941-0.002 2.366 0.007 2.372-0.009 2.567l-0.001 0.012c-0.136 2.148-1.954 3.929-4.285 3.929-2.267 0-4.149-1.729-4.285-3.951-0.007-0.080-0.008-0.159-0.008-0.241zM9.27 18.726l5.005 5.482 3.36-3.68c0.077 0.215 0.185 0.418 0.308 0.614l-3.668 4.457-5.47-6.647 0.465-0.227zM19.518 11.377v-1.545c0.045-0.050 0.427-0.476 0.382-0.426 0.021 0.782 0.108-0.141-0.382 1.97zM13.502 1.039c0.203 0.012 2.935-0.404 5.093 1.861 0.085 0.104 1.842 2.303 1.136 4.71-0.242-1.071-0.663-2.443-1.328-3.098l-0.728 0.704c0.657 0.647 1.089 2.616 1.253 3.637-3.015-3.065-6.903-5.005-6.957-5.037-0.195 0.118-1.841 0.422-3.036 2.679l-0.057 0.108v1.658c-0.051 0.001-0.202 0.002-0.151 0.002-0.759-3.562 0.695-6.392 4.773-7.222zM8.621 9.29l0.259 1.018v1.070l-0.43-1.69c-0.063-0.252 0.129-0.347 0.171-0.398zM7.867 19.41l6.408 7.786 4.335-5.268c0.472 0.41 0.698 0.468 1.698 0.968l-0.337-1.111c-0.086-0.282 0.253-0.735 0.458-0.943 0.457-0.241 0.837-0.584 1.122-1.008l3.537 1.726-3.291 7.322v2.119h-15.045v-2.119l-3.293-7.32 4.408-2.15zM2.633 22.21l3.095 6.881v1.909h-4.679c-0.024-1.519 0.035-6.289 1.584-8.79z">
            </path>
        </symbol>
        <!--===іконка how-do-відкрита книга (без кольору)=-->
        <symbol id="icon-how-do-open-book" viewBox="0 0 43 32">
            <path d="M19.102 4.52h-13.659v1.028h13.659v-1.028z"></path>
            <path d="M19.101 8.357h-11.613v1.028h11.613v-1.028z"></path>
            <path d="M19.102 12.195h-13.659v1.028h13.659v-1.028z"></path>
            <path d="M19.101 16.032h-11.613v1.028h11.613v-1.028z"></path>
            <path d="M19.102 19.869h-13.659v1.028h13.659v-1.028z"></path>
            <path d="M19.101 23.707h-11.613v1.028h11.613v-1.028z"></path>
            <path d="M37.851 4.52h-13.659v1.028h13.659v-1.028z"></path>
            <path d="M35.805 8.357h-11.613v1.028h11.613v-1.028z"></path>
            <path d="M37.851 12.195h-13.659v1.028h13.659v-1.028z"></path>
            <path d="M35.805 16.032h-11.613v1.028h11.613v-1.028z"></path>
            <path d="M37.851 19.869h-13.659v1.028h13.659v-1.028z"></path>
            <path d="M35.805 23.707h-11.613v1.028h11.613v-1.028z"></path>
            <path
                d="M42.783 3.348h-1.875v-2.834c0-0.284-0.229-0.515-0.511-0.515h-15.286c-1.492 0-2.785 0.812-3.463 2.026-0.679-1.215-1.972-2.026-3.464-2.026h-15.286c-0.282 0-0.511 0.231-0.511 0.515v2.834h-1.875c-0.282 0-0.511 0.231-0.511 0.515v27.622c0 0.284 0.229 0.515 0.511 0.515 5.134 0 37.119 0 42.271 0 0.282 0 0.511-0.23 0.511-0.515v-27.622c0-0.284-0.229-0.515-0.511-0.515zM25.111 1.029h14.774c0 4.608 0 16.747 0 27.561h-15.865c-0.703 0-1.406 0.299-1.861 0.685v-25.282c0-1.643 1.307-2.964 2.952-2.964zM3.409 1.029h14.774c1.599 0 2.893 1.252 2.946 2.851 0.001 0.022 0.003 0.091 0.006 0.113v25.28c-0.454-0.386-1.149-0.683-1.855-0.683h-15.872c0-10.811 0-22.954 0-27.561zM1.023 4.378h1.364v24.727c0 0.284 0.229 0.515 0.511 0.515h16.383c0.78 0 1.533 0.515 1.774 1.351h-20.032v-26.593zM42.271 30.971h-20.032c0.243-0.841 0.989-1.351 1.78-1.351h16.377c0.282 0 0.511-0.23 0.511-0.515v-24.727h1.364v26.593z">
            </path>
        </symbol>

        <symbol id="icon-noun_open-book" viewBox="0 0 32 32">
            <path d="M14.717 9.194h-8.443v0.636h8.443v-0.636z"></path>
            <path d="M14.717 11.566h-7.179v0.636h7.179v-0.636z"></path>
            <path d="M14.717 13.939h-8.443v0.636h8.443v-0.636z"></path>
            <path d="M14.717 16.311h-7.179v0.636h7.179v-0.636z"></path>
            <path d="M14.717 18.683h-8.443v0.636h8.443v-0.636z"></path>
            <path d="M14.717 21.055h-7.179v0.636h7.179v-0.636z"></path>
            <path d="M26.308 9.194h-8.443v0.636h8.443v-0.636z"></path>
            <path d="M25.043 11.566h-7.179v0.636h7.179v-0.636z"></path>
            <path d="M26.308 13.939h-8.443v0.636h8.443v-0.636z"></path>
            <path d="M25.043 16.311h-7.179v0.636h7.179v-0.636z"></path>
            <path d="M26.308 18.683h-8.443v0.636h8.443v-0.636z"></path>
            <path d="M25.043 21.055h-7.179v0.636h7.179v-0.636z"></path>
            <path
                d="M29.357 8.47h-1.159v-1.752c0-0.176-0.142-0.318-0.316-0.318h-9.449c-0.922 0-1.721 0.502-2.141 1.253-0.419-0.751-1.219-1.253-2.141-1.253h-9.449c-0.175 0-0.316 0.143-0.316 0.318v1.752h-1.159c-0.175 0-0.316 0.143-0.316 0.318v17.076c0 0.176 0.142 0.318 0.316 0.318 3.174 0 22.946 0 26.131 0 0.174 0 0.316-0.142 0.316-0.318v-17.076c0-0.176-0.142-0.318-0.316-0.318zM18.432 7.036h9.133c0 2.849 0 10.353 0 17.038h-9.808c-0.435 0-0.869 0.185-1.151 0.424v-15.629c0-1.016 0.808-1.832 1.825-1.832zM5.016 7.036h9.133c0.988 0 1.788 0.774 1.821 1.762 0 0.014 0.002 0.057 0.004 0.070v15.628c-0.28-0.238-0.71-0.423-1.147-0.423h-9.812c0-6.683 0-14.19 0-17.038zM3.541 9.106h0.843v15.286c0 0.176 0.142 0.318 0.316 0.318h10.128c0.482 0 0.948 0.318 1.097 0.835h-12.384v-16.439zM29.041 25.546h-12.383c0.15-0.52 0.611-0.835 1.101-0.835h10.124c0.174 0 0.316-0.142 0.316-0.318v-15.286h0.843v16.439z">
            </path>
        </symbol>

        <!--===іконка how-do-психол допомога без кольору===-->

        <symbol id="icon-how-do-psyhsupport" viewBox="0 0 32 32">
            <path
                d="M1.979 12.558v2.831c0 0.152 0.069 0.295 0.188 0.39 1.921 1.523 4.332 2.362 6.788 2.362 0.735 0 1.471-0.077 2.19-0.224 1.533 0.683 3.165 1.032 4.855 1.032 1.695 0 3.327-0.349 4.855-1.032 3.069 0.624 6.338-0.046 8.977-2.138 0.119-0.094 0.188-0.238 0.188-0.39v-2.831c0-0.416-0.205-0.794-0.571-1.027l-3.839-2.176c0.84-1.073 1.466-2.602 1.574-3.913 0.319-2.256-1.507-4.646-4.136-4.646-1.105 0-2.156 0.458-2.927 1.227-0.027 0.027-0.057 0.049-0.083 0.076-0.024 0.025-0.043 0.054-0.066 0.080-0.015 0.017-0.029 0.036-0.044 0.053-0.751-1.38-2.195-2.232-3.896-2.232-0.165 0-0.328 0.011-0.488 0.028-0.010-0.001-0.018-0.006-0.028-0.006-0.091 0-0.285 0.024-0.388 0.054-0.015 0.004-0.026 0.015-0.041 0.021-1.27 0.259-2.346 1.034-2.991 2.156-0.776-0.911-1.916-1.457-3.156-1.457-3.88 0-5.601 4.612-2.539 8.581l-3.875 2.167c-0.344 0.219-0.549 0.598-0.549 1.014zM20.846 16.828c-0.083 0.041-0.166 0.085-0.25 0.123l-0 0c-0.001 0-0.001 0.001-0.002 0.001-1.442 0.667-2.987 1.006-4.594 1.006-1.602 0-3.148-0.338-4.596-1.007-0.705-0.323-1.387-0.734-2.030-1.221v-2.87c0-0.098 0.047-0.184 0.101-0.221l4.509-2.524c0.561 0.48 1.278 0.832 2.020 0.832 0.715 0 1.488-0.357 2.038-0.843l4.455 2.52c0.082 0.053 0.129 0.139 0.129 0.237v2.87c-0.567 0.429-1.164 0.795-1.781 1.098zM28.945 12.382c0.058 0.037 0.091 0.101 0.091 0.176v2.587c-1.954 1.477-4.306 2.148-6.688 1.98 0.367-0.23 0.766-0.516 1.075-0.76 0.119-0.094 0.188-0.238 0.188-0.39v-3.114c0-0.435-0.217-0.835-0.606-1.087l-2.366-1.339 0.575-0.321c0.698 0.573 1.297 0.744 1.835 0.744 0.658 0 1.35-0.325 1.864-0.759l4.031 2.284zM23.050 1.788c1.371 0 2.574 0.902 3 2.142-0.827-0.099-1.636-0.51-2.221-1.142-0.106-0.114-0.256-0.173-0.413-0.155-0.154 0.016-0.291 0.105-0.37 0.239-0.562 0.948-1.482 1.58-2.529 1.76 0-0.001-0-0.002-0-0.003 0.005-0.216-0.008-0.434-0.032-0.653-0.002-0.022-0.005-0.044-0.007-0.067-0.032-0.248-0.106-0.559-0.121-0.609 0.559-0.902 1.598-1.513 2.694-1.513zM20.409 5.644c1.244-0.137 2.369-0.767 3.142-1.762 0.762 0.629 1.728 1.010 2.682 1.056-0.007 1.792-1.461 4.927-3.183 4.927-1.328 0-2.461-1.912-2.885-3.238 0.108-0.341 0.186-0.669 0.244-0.983zM20.509 9.373l-0.88 0.491-0.888-0.502c0.329-0.413 0.631-0.893 0.89-1.413 0.249 0.526 0.546 1.010 0.878 1.425zM19.182 6.465c-0.475 1.427-1.693 3.49-3.176 3.49-1.73 0-3.203-2.864-3.483-4.696 0.075-0.019 2.412 0.126 4.020-2.001 0.816 0.688 1.918 1.143 2.989 1.188 0.013 0.647-0.143 1.406-0.35 2.018zM16.034 0.992c2.76 0 3.285 2.392 3.328 2.442-1.001-0.102-1.914-0.596-2.545-1.276-0.106-0.114-0.26-0.171-0.413-0.154s-0.291 0.106-0.371 0.241c-0.547 0.932-1.404 1.589-2.397 1.868-0.383 0.108-0.797 0.157-1.158 0.154 0.135-1.822 1.585-3.274 3.555-3.274zM12.372 7.938c0.255 0.515 0.559 1.006 0.906 1.438l-0.869 0.487-0.9-0.51c0.341-0.438 0.631-0.929 0.863-1.415zM8.942 1.788c1.117 0 2.14 0.571 2.71 1.514-0.029 0.1-0.106 0.498-0.116 0.548-0.685-0.165-1.314-0.533-1.808-1.062-0.106-0.114-0.256-0.17-0.413-0.154-0.154 0.017-0.291 0.106-0.37 0.24-0.659 1.119-1.867 1.815-3.154 1.815 0.157-1.627 1.507-2.9 3.151-2.9zM5.834 5.678c1.415-0.014 2.75-0.686 3.616-1.796 0.592 0.491 1.294 0.813 2.041 0.961 0.029 0.575 0.178 1.273 0.348 1.789-0.272 0.84-0.793 1.841-1.44 2.505-0.004 0.004-0.010 0.006-0.014 0.010-0.405 0.43-0.981 0.719-1.434 0.719-1.583 0-2.82-2.508-3.117-4.188zM2.964 12.558c0-0.075 0.033-0.139 0.067-0.162l4.086-2.284c0.245 0.206 0.302 0.229 0.351 0.265l-0 0c0.481 0.322 0.922 0.482 1.523 0.482 0.64 0 1.223-0.273 1.737-0.694 0.029-0.023 0.060-0.045 0.087-0.068l0.583 0.33-2.429 1.361c-0.363 0.236-0.58 0.636-0.58 1.071v3.114c0 0.152 0.069 0.296 0.188 0.39 0.314 0.249 0.722 0.539 1.075 0.761-2.417 0.166-4.768-0.528-6.689-1.98v-2.587z">
            </path>
            <path
                d="M31.034 20.781c-0.606-0.383-1.351-0.423-1.993-0.11l-6.076 2.956c-0.021-1.145-0.949-2.071-2.092-2.071l-3.484 0.001c-1.718-1.504-3.913-2.425-5.909-2.473-1.968-0.047-3.735-0.060-4.56-0.064v-1.002h-6.922v11.517h6.922v-1.379c1.898 1.097 6.889 3.845 9.258 3.845 0.054 0 0.106-0.001 0.157-0.004 4.165-0.235 13.989-7.198 14.637-7.661 0.634-0.37 1.026-1.056 1.026-1.796 0-0.719-0.361-1.376-0.966-1.758zM5.937 28.542h-4.952v-9.533h4.952v9.533zM30.467 23.484c-0.015 0.008-0.030 0.017-0.044 0.028-0.101 0.073-10.207 7.271-14.142 7.494-0.039 0.002-0.078 0.003-0.12 0.003-2.077 0-7.143-2.753-9.24-4.001v-6.997c0.821 0.004 2.578 0.017 4.536 0.064 1.824 0.044 3.848 0.921 5.416 2.346l0.14 0.128 3.86-0.001c0.612 0 1.111 0.502 1.111 1.119s-0.498 1.119-1.111 1.119h-7.091v0.992h7.091c0.68 0 1.278-0.333 1.662-0.839l6.934-3.373c0.34-0.167 0.72-0.146 1.041 0.057s0.504 0.537 0.504 0.918c0 0.391-0.21 0.753-0.549 0.945z">
            </path>
            <path d="M16.492 12.159h-0.985v0.92h0.985v-0.92z"></path>
            <path d="M16.492 13.992h-0.985v0.92h0.985v-0.92z"></path>
            <path d="M16.492 15.826h-0.985v0.92h0.985v-0.92z"></path>
        </symbol>
    </defs>
</svg>