<svg width="400" height="472" viewBox="0 0 400 472" fill="none" xmlns="http://www.w3.org/2000/svg">
<path d="M417.789 322.005C412.291 309.679 404.707 297.542 393.617 283.522C365.653 248.332 357.122 169.86 357.027 169.108C356.648 165.344 353.994 162.239 350.487 161.11C346.884 159.981 342.998 161.016 340.439 163.838C307.072 201.193 321.101 258.87 328.684 281.923C330.77 288.227 333.045 295.66 334.655 303.187C346.978 364.064 323.186 391.633 317.593 397.184C312.19 398.689 308.493 397.937 305.08 394.267C293.326 381.377 289.44 339.13 294.938 284.087C296.076 272.89 295.791 262.822 294.179 253.413C282.584 185.759 240.07 142.362 229.247 127.143C199.482 83.1085 196.449 9.81166 196.354 9.15302C196.26 5.67165 194.269 2.56665 191.141 1.0612C188.107 -0.444256 184.411 -0.256073 181.567 1.71984C131.896 35.4985 136.162 116.887 143.081 162.333C144.693 172.871 147.821 183.598 153.224 197.147C172.467 245.604 149.433 308.174 149.243 308.739C149.053 309.303 148.864 309.773 148.769 310.338C145.83 325.769 140.901 334.99 135.403 334.99C134.835 334.99 134.266 334.896 133.602 334.708C126.872 333.296 123.365 326.145 123.27 319.935C122.891 239.676 42.4127 212.672 41.5596 212.389C37.9575 211.26 33.9763 212.295 31.5117 215.212C28.9523 218.129 28.4783 222.175 30.1846 225.562C31.1325 227.538 34.1658 236.194 32.0804 266.774C30.2794 294.249 25.2554 321.441 17.1981 347.504C-1.94977 409.98 1.08356 469.164 1.27314 471.986C15.9971 632.23 246.252 660.308 382.904 570.029C397.881 560.149 410.11 548.859 419.115 536.439C469.545 466.811 439.875 372.25 417.789 322.005ZM67.5335 475.091C67.8178 480.266 63.8366 484.689 58.623 484.971H58.0543C53.0303 484.971 48.8595 481.113 48.5751 476.126C47.722 462.389 47.9116 447.993 48.9543 432.374C49.3335 427.199 53.8835 423.341 59.097 423.623C64.3106 423.999 68.2918 428.515 67.9126 433.69C66.869 448.558 66.6803 462.107 67.5335 475.091ZM72.1773 391.727C71.6086 396.525 67.5325 400.007 62.7929 400.007C62.4138 400.007 62.0346 400.007 61.5606 399.913C56.4419 399.254 52.745 394.643 53.3138 389.469L57.8638 353.149C58.5273 348.068 63.1721 344.399 68.4804 344.964C73.694 345.622 77.3908 350.327 76.7273 355.502L72.1773 391.727Z" fill="#3D3D3D"/>
</svg>
